%TF.GenerationSoftware,KiCad,Pcbnew,9.0.4*%
%TF.CreationDate,2025-09-26T19:58:30-04:00*%
%TF.ProjectId,PCRuler_KiCad,50435275-6c65-4725-9f4b-694361642e6b,rev?*%
%TF.SameCoordinates,Original*%
%TF.FileFunction,Copper,L2,Bot*%
%TF.FilePolarity,Positive*%
%FSLAX46Y46*%
G04 Gerber Fmt 4.6, Leading zero omitted, Abs format (unit mm)*
G04 Created by KiCad (PCBNEW 9.0.4) date 2025-09-26 19:58:30*
%MOMM*%
%LPD*%
G01*
G04 APERTURE LIST*
%TA.AperFunction,ViaPad*%
%ADD10C,0.600000*%
%TD*%
%TA.AperFunction,ViaPad*%
%ADD11C,0.800000*%
%TD*%
%TA.AperFunction,ViaPad*%
%ADD12C,1.500000*%
%TD*%
%TA.AperFunction,Conductor*%
%ADD13C,0.200000*%
%TD*%
%TA.AperFunction,Conductor*%
%ADD14C,1.000000*%
%TD*%
G04 APERTURE END LIST*
D10*
%TO.N,/BTN_3*%
X215000000Y-165100000D03*
X257800000Y-164700000D03*
X29900000Y-150700000D03*
X301100000Y-163200000D03*
X261500000Y-165600000D03*
X217900000Y-165200000D03*
X304200000Y-163200000D03*
%TO.N,/BOOT*%
X304000000Y-162400003D03*
%TO.N,/BTN_3*%
X306600000Y-163200000D03*
X318400000Y-165100000D03*
X323700000Y-161800000D03*
X319900000Y-154900000D03*
%TO.N,/BTN_2*%
X314525001Y-154891987D03*
%TO.N,/BTN_3*%
X319900000Y-154900000D03*
%TO.N,/BTN_2*%
X296500000Y-158400000D03*
X323000000Y-159600000D03*
X311800000Y-156600000D03*
X301900000Y-157200000D03*
X304014921Y-158614921D03*
X42600000Y-165300000D03*
X42600000Y-154600000D03*
X42600000Y-167700000D03*
X301700000Y-165100000D03*
%TO.N,+3.3V*%
X29100000Y-160300000D03*
X31100000Y-155000000D03*
%TO.N,/BTN_1*%
X301700000Y-161400000D03*
X46700000Y-151900000D03*
X306500000Y-160500000D03*
X43700000Y-167000000D03*
X304000000Y-161600000D03*
X307100000Y-162200000D03*
X43700000Y-165500000D03*
%TO.N,Net-(J3-Pin_1)*%
X303700000Y-160474598D03*
X301500000Y-160400000D03*
X306300000Y-159100000D03*
%TO.N,/RESET*%
X303900000Y-159700000D03*
X306300000Y-158200000D03*
%TO.N,/BTN_1*%
X314000000Y-161400000D03*
%TO.N,+5V*%
X329000000Y-164800000D03*
X330100000Y-156900000D03*
%TO.N,Net-(J3-Pin_2)*%
X318634358Y-161943761D03*
X329400000Y-154900000D03*
X304000000Y-152900000D03*
X304000000Y-155800000D03*
X288700000Y-152500000D03*
X293700000Y-157400000D03*
X192086863Y-149291962D03*
X214015544Y-148757772D03*
X212100000Y-149500000D03*
X329400000Y-152900000D03*
%TO.N,Net-(J3-Pin_1)*%
X308000000Y-161600000D03*
X295000000Y-157100000D03*
X268200000Y-148700000D03*
X192200000Y-148500000D03*
X311300000Y-165100000D03*
%TO.N,/RESET*%
X215700000Y-147900000D03*
X294700000Y-153200000D03*
X213300000Y-148400000D03*
X212800000Y-154500000D03*
%TO.N,+3.3V*%
X196600000Y-163800000D03*
X196600000Y-154600000D03*
%TO.N,/charger_status*%
X334100000Y-156000000D03*
X292300000Y-154100000D03*
%TO.N,/BOOT*%
X251200000Y-147300000D03*
X319300000Y-161500000D03*
X207400000Y-148000000D03*
%TO.N,/LED_DATA*%
X319800000Y-160700000D03*
X23500000Y-159100000D03*
D11*
%TO.N,+3.3V*%
X311200000Y-155600000D03*
X302700000Y-168700000D03*
D12*
%TO.N,GND*%
X305300000Y-168500000D03*
X305300000Y-164600000D03*
%TO.N,+3.3V*%
X216500000Y-165000000D03*
X216500000Y-154500000D03*
%TO.N,GND*%
X254000000Y-153600000D03*
X254000000Y-149551000D03*
D10*
%TO.N,/USB_D-*%
X314599479Y-164599479D03*
%TO.N,/USB_D+*%
X315200521Y-165200521D03*
X326203835Y-163535000D03*
%TO.N,/USB_D-*%
X326203835Y-162685000D03*
%TD*%
D13*
%TO.N,/BTN_3*%
X52800000Y-165699000D02*
X52800000Y-157150057D01*
X128500000Y-165699000D02*
X108400000Y-165699000D01*
X255900000Y-165699000D02*
X242700000Y-165699000D01*
X52800000Y-157150057D02*
X46349943Y-150700000D01*
X184100000Y-165699000D02*
X128500000Y-165699000D01*
X46349943Y-150700000D02*
X29900000Y-150700000D01*
X301100000Y-163200000D02*
X298200000Y-166100000D01*
X256801000Y-165699000D02*
X255900000Y-165699000D01*
X214401000Y-165699000D02*
X213200000Y-165699000D01*
X298200000Y-166100000D02*
X298000000Y-166100000D01*
X298000000Y-166100000D02*
X272900000Y-166100000D01*
X272900000Y-166100000D02*
X262500000Y-166100000D01*
X213200000Y-165699000D02*
X184100000Y-165699000D01*
X242700000Y-165699000D02*
X218399000Y-165699000D01*
X218399000Y-165699000D02*
X217900000Y-165200000D01*
X257800000Y-164700000D02*
X256801000Y-165699000D01*
X262500000Y-166100000D02*
X262000000Y-166100000D01*
X262000000Y-166100000D02*
X261500000Y-165600000D01*
X215000000Y-165100000D02*
X214401000Y-165699000D01*
X108400000Y-165699000D02*
X52800000Y-165699000D01*
X306600000Y-163200000D02*
X304200000Y-163200000D01*
%TO.N,/BOOT*%
X305449940Y-162400003D02*
X304000000Y-162400003D01*
X306748943Y-161101000D02*
X305449940Y-162400003D01*
X309532786Y-158400000D02*
X309449943Y-158400000D01*
X309449943Y-158400000D02*
X306748943Y-161101000D01*
%TO.N,/BTN_3*%
X318400000Y-165100000D02*
X317698479Y-165801521D01*
X309201521Y-165801521D02*
X306600000Y-163200000D01*
X317698479Y-165801521D02*
X309201521Y-165801521D01*
X319900000Y-154900000D02*
X323700000Y-158700000D01*
X323700000Y-158700000D02*
X323700000Y-161800000D01*
%TO.N,/BTN_2*%
X318291987Y-154891987D02*
X323000000Y-159600000D01*
X318291987Y-154891987D02*
X314525001Y-154891987D01*
%TO.N,/LED_DATA*%
X319800000Y-160700000D02*
X313099000Y-154799000D01*
X313099000Y-154799000D02*
X270401000Y-154799000D01*
X270401000Y-154799000D02*
X259100000Y-166100000D01*
X30500000Y-166100000D02*
X23500000Y-159100000D01*
X259100000Y-166100000D02*
X30500000Y-166100000D01*
%TO.N,/BTN_2*%
X297700000Y-157200000D02*
X301900000Y-157200000D01*
X296500000Y-158400000D02*
X297700000Y-157200000D01*
X304014921Y-158614921D02*
X306029842Y-156600000D01*
X306029842Y-156600000D02*
X311800000Y-156600000D01*
%TO.N,Net-(J3-Pin_1)*%
X298300000Y-160400000D02*
X297200000Y-160400000D01*
X298301000Y-160401000D02*
X298300000Y-160400000D01*
X297200000Y-160400000D02*
X295000000Y-158200000D01*
X295000000Y-158200000D02*
X295000000Y-157100000D01*
%TO.N,/BTN_2*%
X76900000Y-166902000D02*
X99200000Y-166902000D01*
X251500000Y-166902000D02*
X262500000Y-166902000D01*
X295600000Y-166902000D02*
X297400000Y-166902000D01*
X301700000Y-165201521D02*
X301700000Y-165100000D01*
X182600000Y-166902000D02*
X220300000Y-166902000D01*
X299999521Y-166902000D02*
X301700000Y-165201521D01*
X240300000Y-166902000D02*
X251500000Y-166902000D01*
X42600000Y-154600000D02*
X42600000Y-165300000D01*
X99200000Y-166902000D02*
X128400000Y-166902000D01*
X42600000Y-167700000D02*
X45502000Y-167700000D01*
X128400000Y-166902000D02*
X147600000Y-166902000D01*
X262500000Y-166902000D02*
X282100000Y-166902000D01*
X147600000Y-166902000D02*
X182600000Y-166902000D01*
X297400000Y-166902000D02*
X299999521Y-166902000D01*
X46300000Y-166902000D02*
X76900000Y-166902000D01*
X45502000Y-167700000D02*
X46300000Y-166902000D01*
X220300000Y-166902000D02*
X240300000Y-166902000D01*
X282100000Y-166902000D02*
X295600000Y-166902000D01*
%TO.N,+3.3V*%
X31100000Y-158300000D02*
X29100000Y-160300000D01*
X31100000Y-155000000D02*
X31100000Y-158300000D01*
%TO.N,/BTN_1*%
X43700000Y-165500000D02*
X43700000Y-154900000D01*
X299366215Y-166501000D02*
X45000000Y-166501000D01*
X308750057Y-160000000D02*
X307100000Y-161650057D01*
X301700000Y-161400000D02*
X301700000Y-164167215D01*
X311000000Y-160000000D02*
X308750057Y-160000000D01*
X45000000Y-166501000D02*
X44501000Y-167000000D01*
X306500000Y-160500000D02*
X305400000Y-161600000D01*
X305400000Y-161600000D02*
X304000000Y-161600000D01*
X43700000Y-154900000D02*
X46700000Y-151900000D01*
X44501000Y-167000000D02*
X43700000Y-167000000D01*
X307100000Y-161650057D02*
X307100000Y-162200000D01*
X301700000Y-164167215D02*
X299366215Y-166501000D01*
%TO.N,Net-(J3-Pin_1)*%
X304925402Y-160474598D02*
X303700000Y-160474598D01*
X298302000Y-160400000D02*
X298301000Y-160401000D01*
X306300000Y-159100000D02*
X304925402Y-160474598D01*
X301500000Y-160400000D02*
X298302000Y-160400000D01*
%TO.N,/RESET*%
X303900000Y-159700000D02*
X303800000Y-159800000D01*
X305400000Y-158200000D02*
X303900000Y-159700000D01*
X306300000Y-158200000D02*
X305400000Y-158200000D01*
D14*
%TO.N,+3.3V*%
X302700000Y-168700000D02*
X302700000Y-158515628D01*
X302700000Y-158515628D02*
X305615628Y-155600000D01*
X305615628Y-155600000D02*
X311200000Y-155600000D01*
D13*
%TO.N,/BTN_1*%
X312400000Y-161400000D02*
X311000000Y-160000000D01*
X314000000Y-161400000D02*
X312400000Y-161400000D01*
D14*
%TO.N,GND*%
X305300000Y-164600000D02*
X305300000Y-168500000D01*
D13*
%TO.N,+5V*%
X330100000Y-163700000D02*
X329000000Y-164800000D01*
X330100000Y-156900000D02*
X330100000Y-163700000D01*
%TO.N,Net-(J3-Pin_2)*%
X319174596Y-162483999D02*
X318634358Y-161943761D01*
X320665944Y-162483999D02*
X319174596Y-162483999D01*
X303400000Y-155200000D02*
X304000000Y-155800000D01*
X285500000Y-147502000D02*
X288700000Y-150702000D01*
X250000000Y-148703000D02*
X251931200Y-148703000D01*
X267599000Y-148948943D02*
X267951057Y-149301000D01*
X288700000Y-150702000D02*
X288700000Y-152500000D01*
X302500000Y-155200000D02*
X303400000Y-155200000D01*
X214159772Y-148902000D02*
X217367100Y-148902000D01*
X233300000Y-148503000D02*
X239900000Y-148503000D01*
X251931200Y-148703000D02*
X252731200Y-147903000D01*
X318600000Y-153699000D02*
X321600000Y-153699000D01*
X217367100Y-148902000D02*
X217602000Y-148667100D01*
X270400000Y-147502000D02*
X281800000Y-147502000D01*
X326138892Y-161900000D02*
X328400000Y-161900000D01*
X193310038Y-149291962D02*
X193600000Y-149002000D01*
X261200000Y-147903000D02*
X265900000Y-147903000D01*
X293700000Y-157400000D02*
X295900000Y-155200000D01*
X204900000Y-149002000D02*
X207600000Y-149002000D01*
X249800000Y-148503000D02*
X250000000Y-148703000D01*
X281800000Y-147502000D02*
X285500000Y-147502000D01*
X265900000Y-147903000D02*
X266835900Y-147903000D01*
X208798000Y-148102000D02*
X209300000Y-148102000D01*
X266835900Y-147903000D02*
X267599000Y-148666100D01*
X217602000Y-148667100D02*
X217766100Y-148503000D01*
X192086863Y-149291962D02*
X193310038Y-149291962D01*
X239900000Y-148503000D02*
X246600000Y-148503000D01*
X304799000Y-153699000D02*
X306400000Y-153699000D01*
X267951057Y-149301000D02*
X268601000Y-149301000D01*
X328601000Y-153699000D02*
X329400000Y-152900000D01*
X217766100Y-148503000D02*
X220000000Y-148503000D01*
X220000000Y-148503000D02*
X225900000Y-148503000D01*
X225900000Y-148503000D02*
X233300000Y-148503000D01*
X252731200Y-147903000D02*
X261200000Y-147903000D01*
X193600000Y-149002000D02*
X199900000Y-149002000D01*
X267599000Y-148666100D02*
X267599000Y-148948943D01*
X329400000Y-160900000D02*
X329400000Y-154900000D01*
X304000000Y-152900000D02*
X304799000Y-153699000D01*
X209300000Y-148102000D02*
X210702000Y-148102000D01*
X321600000Y-153699000D02*
X328601000Y-153699000D01*
X268601000Y-149301000D02*
X270400000Y-147502000D01*
X306400000Y-153699000D02*
X318600000Y-153699000D01*
X207600000Y-149002000D02*
X207898000Y-149002000D01*
X246600000Y-148503000D02*
X248700000Y-148503000D01*
X328400000Y-161900000D02*
X329400000Y-160900000D01*
X295900000Y-155200000D02*
X302500000Y-155200000D01*
X248700000Y-148503000D02*
X249800000Y-148503000D01*
X210702000Y-148102000D02*
X212100000Y-149500000D01*
X320665944Y-162483999D02*
X325554893Y-162483999D01*
X199900000Y-149002000D02*
X204900000Y-149002000D01*
X207898000Y-149002000D02*
X208798000Y-148102000D01*
X214015544Y-148757772D02*
X214159772Y-148902000D01*
X325554893Y-162483999D02*
X326138892Y-161900000D01*
%TO.N,Net-(J3-Pin_1)*%
X311300000Y-165100000D02*
X308000000Y-161800000D01*
X207648943Y-148601000D02*
X192301000Y-148601000D01*
X208001000Y-148248943D02*
X207648943Y-148601000D01*
X208001000Y-147966100D02*
X208001000Y-148248943D01*
X250632900Y-148302000D02*
X250432900Y-148102000D01*
X260200000Y-147502000D02*
X253400000Y-147502000D01*
X252233550Y-147833550D02*
X251765100Y-148302000D01*
X192301000Y-148601000D02*
X192200000Y-148500000D01*
X217201000Y-148501000D02*
X215451057Y-148501000D01*
X209000000Y-147701000D02*
X208266100Y-147701000D01*
X223400000Y-148102000D02*
X217600000Y-148102000D01*
X215451057Y-148501000D02*
X214651057Y-147701000D01*
X249300000Y-148102000D02*
X245002000Y-148102000D01*
X208266100Y-147701000D02*
X208001000Y-147966100D01*
X308000000Y-161800000D02*
X308000000Y-161600000D01*
X253400000Y-147502000D02*
X252565100Y-147502000D01*
X212500000Y-147701000D02*
X209000000Y-147701000D01*
X267002000Y-147502000D02*
X260200000Y-147502000D01*
X268200000Y-148700000D02*
X267002000Y-147502000D01*
X251765100Y-148302000D02*
X250632900Y-148302000D01*
X245002000Y-148102000D02*
X223400000Y-148102000D01*
X252565100Y-147502000D02*
X252233550Y-147833550D01*
X214651057Y-147701000D02*
X212500000Y-147701000D01*
X250432900Y-148102000D02*
X249300000Y-148102000D01*
X217600000Y-148102000D02*
X217201000Y-148501000D01*
%TO.N,/RESET*%
X250799000Y-147901000D02*
X251599000Y-147901000D01*
X248400000Y-147701000D02*
X250599000Y-147701000D01*
X251599000Y-147901000D02*
X252200000Y-147300000D01*
X252399000Y-147101000D02*
X287400000Y-147101000D01*
X287400000Y-147101000D02*
X293499000Y-153200000D01*
X293499000Y-153200000D02*
X294700000Y-153200000D01*
X252200000Y-147300000D02*
X252399000Y-147101000D01*
X215899000Y-147701000D02*
X218100000Y-147701000D01*
X250599000Y-147701000D02*
X250799000Y-147901000D01*
X215700000Y-147900000D02*
X215899000Y-147701000D01*
X229100000Y-147701000D02*
X248400000Y-147701000D01*
X218100000Y-147701000D02*
X229100000Y-147701000D01*
X212800000Y-148900000D02*
X213300000Y-148400000D01*
X212800000Y-154500000D02*
X212800000Y-148900000D01*
%TO.N,+3.3V*%
X196600000Y-154600000D02*
X196600000Y-163800000D01*
%TO.N,/charger_status*%
X333400000Y-154100000D02*
X334100000Y-154800000D01*
X334100000Y-154800000D02*
X334100000Y-156000000D01*
X292300000Y-154100000D02*
X333400000Y-154100000D01*
%TO.N,/BOOT*%
X208100000Y-147300000D02*
X207400000Y-148000000D01*
X251200000Y-147300000D02*
X208100000Y-147300000D01*
D14*
%TO.N,+3.3V*%
X216500000Y-154500000D02*
X216500000Y-165000000D01*
%TO.N,GND*%
X254000000Y-153600000D02*
X254000000Y-149551000D01*
D13*
%TO.N,/USB_D+*%
X326003836Y-163335001D02*
X316783198Y-163335001D01*
%TO.N,/USB_D-*%
X326203835Y-162685000D02*
X326003836Y-162884999D01*
%TO.N,/USB_D+*%
X316783198Y-163335001D02*
X315200521Y-164917678D01*
X326203835Y-163535000D02*
X326003836Y-163335001D01*
X315200521Y-164917678D02*
X315200521Y-165200521D01*
%TO.N,/USB_D-*%
X326003836Y-162884999D02*
X316596802Y-162884999D01*
X316596802Y-162884999D02*
X314882322Y-164599479D01*
X314882322Y-164599479D02*
X314599479Y-164599479D01*
%TO.N,/BOOT*%
X315851470Y-158400000D02*
X309532786Y-158400000D01*
X319300000Y-161500000D02*
X315851470Y-158400000D01*
%TD*%
M02*
