%TF.GenerationSoftware,KiCad,Pcbnew,9.0.4*%
%TF.CreationDate,2025-09-26T19:58:30-04:00*%
%TF.ProjectId,PCRuler_KiCad,50435275-6c65-4725-9f4b-694361642e6b,rev?*%
%TF.SameCoordinates,Original*%
%TF.FileFunction,Soldermask,Top*%
%TF.FilePolarity,Negative*%
%FSLAX46Y46*%
G04 Gerber Fmt 4.6, Leading zero omitted, Abs format (unit mm)*
G04 Created by KiCad (PCBNEW 9.0.4) date 2025-09-26 19:58:30*
%MOMM*%
%LPD*%
G01*
G04 APERTURE LIST*
G04 Aperture macros list*
%AMRoundRect*
0 Rectangle with rounded corners*
0 $1 Rounding radius*
0 $2 $3 $4 $5 $6 $7 $8 $9 X,Y pos of 4 corners*
0 Add a 4 corners polygon primitive as box body*
4,1,4,$2,$3,$4,$5,$6,$7,$8,$9,$2,$3,0*
0 Add four circle primitives for the rounded corners*
1,1,$1+$1,$2,$3*
1,1,$1+$1,$4,$5*
1,1,$1+$1,$6,$7*
1,1,$1+$1,$8,$9*
0 Add four rect primitives between the rounded corners*
20,1,$1+$1,$2,$3,$4,$5,0*
20,1,$1+$1,$4,$5,$6,$7,0*
20,1,$1+$1,$6,$7,$8,$9,0*
20,1,$1+$1,$8,$9,$2,$3,0*%
%AMOutline5P*
0 Free polygon, 5 corners , with rotation*
0 The origin of the aperture is its center*
0 number of corners: always 5*
0 $1 to $10 corner X, Y*
0 $11 Rotation angle, in degrees counterclockwise*
0 create outline with 5 corners*
4,1,5,$1,$2,$3,$4,$5,$6,$7,$8,$9,$10,$1,$2,$11*%
%AMOutline6P*
0 Free polygon, 6 corners , with rotation*
0 The origin of the aperture is its center*
0 number of corners: always 6*
0 $1 to $12 corner X, Y*
0 $13 Rotation angle, in degrees counterclockwise*
0 create outline with 6 corners*
4,1,6,$1,$2,$3,$4,$5,$6,$7,$8,$9,$10,$11,$12,$1,$2,$13*%
%AMOutline7P*
0 Free polygon, 7 corners , with rotation*
0 The origin of the aperture is its center*
0 number of corners: always 7*
0 $1 to $14 corner X, Y*
0 $15 Rotation angle, in degrees counterclockwise*
0 create outline with 7 corners*
4,1,7,$1,$2,$3,$4,$5,$6,$7,$8,$9,$10,$11,$12,$13,$14,$1,$2,$15*%
%AMOutline8P*
0 Free polygon, 8 corners , with rotation*
0 The origin of the aperture is its center*
0 number of corners: always 8*
0 $1 to $16 corner X, Y*
0 $17 Rotation angle, in degrees counterclockwise*
0 create outline with 8 corners*
4,1,8,$1,$2,$3,$4,$5,$6,$7,$8,$9,$10,$11,$12,$13,$14,$15,$16,$1,$2,$17*%
G04 Aperture macros list end*
%ADD10C,0.650000*%
%ADD11RoundRect,0.150000X0.425000X-0.150000X0.425000X0.150000X-0.425000X0.150000X-0.425000X-0.150000X0*%
%ADD12RoundRect,0.075000X0.500000X-0.075000X0.500000X0.075000X-0.500000X0.075000X-0.500000X-0.075000X0*%
%ADD13RoundRect,0.250000X0.750000X-0.840000X0.750000X0.840000X-0.750000X0.840000X-0.750000X-0.840000X0*%
%ADD14R,1.500000X1.000000*%
%ADD15RoundRect,0.102000X-0.500000X1.250000X-0.500000X-1.250000X0.500000X-1.250000X0.500000X1.250000X0*%
%ADD16RoundRect,0.135000X-0.135000X-0.185000X0.135000X-0.185000X0.135000X0.185000X-0.135000X0.185000X0*%
%ADD17RoundRect,0.243750X0.243750X0.456250X-0.243750X0.456250X-0.243750X-0.456250X0.243750X-0.456250X0*%
%ADD18R,1.600200X1.397000*%
%ADD19RoundRect,0.375000X-0.375000X0.625000X-0.375000X-0.625000X0.375000X-0.625000X0.375000X0.625000X0*%
%ADD20RoundRect,0.500000X-1.400000X0.500000X-1.400000X-0.500000X1.400000X-0.500000X1.400000X0.500000X0*%
%ADD21RoundRect,0.135000X-0.185000X0.135000X-0.185000X-0.135000X0.185000X-0.135000X0.185000X0.135000X0*%
%ADD22R,1.000000X1.900000*%
%ADD23RoundRect,0.150000X-0.512500X-0.150000X0.512500X-0.150000X0.512500X0.150000X-0.512500X0.150000X0*%
%ADD24R,3.175000X1.270000*%
%ADD25R,0.800000X0.400000*%
%ADD26R,0.400000X0.800000*%
%ADD27Outline5P,-0.725000X0.130500X-0.130500X0.725000X0.725000X0.725000X0.725000X-0.725000X-0.725000X-0.725000X0.000000*%
%ADD28R,1.450000X1.450000*%
%ADD29R,0.700000X0.700000*%
G04 APERTURE END LIST*
D10*
%TO.C,J2*%
X328595000Y-166000000D03*
X328595000Y-160220000D03*
D11*
X327520000Y-166310000D03*
X327520000Y-165510000D03*
D12*
X327520000Y-164360000D03*
X327520000Y-163360000D03*
X327520000Y-162860000D03*
X327520000Y-161860000D03*
D11*
X327520000Y-160710000D03*
X327520000Y-159910000D03*
X327520000Y-159910000D03*
X327520000Y-160710000D03*
D12*
X327520000Y-161360000D03*
X327520000Y-162360000D03*
X327520000Y-163860000D03*
X327520000Y-164860000D03*
D11*
X327520000Y-165510000D03*
X327520000Y-166310000D03*
D13*
X328095000Y-168220000D03*
X332025000Y-168220000D03*
X328095000Y-158000000D03*
X332025000Y-158000000D03*
%TD*%
D14*
%TO.C,D2*%
X26450000Y-157400000D03*
X26450000Y-160600000D03*
X21550000Y-160600000D03*
X21550000Y-157400000D03*
%TD*%
D15*
%TO.C,SW6*%
X237900000Y-153600000D03*
X235400000Y-148100000D03*
X240400000Y-148100000D03*
%TD*%
D16*
%TO.C,R3*%
X196580000Y-149100000D03*
X197600000Y-149100000D03*
%TD*%
D14*
%TO.C,D19*%
X191550000Y-157400000D03*
X191550000Y-160600000D03*
X196450000Y-160600000D03*
X196450000Y-157400000D03*
%TD*%
%TO.C,D22*%
X221550000Y-157400000D03*
X221550000Y-160600000D03*
X226450000Y-160600000D03*
X226450000Y-157400000D03*
%TD*%
D17*
%TO.C,D1*%
X333800000Y-154200000D03*
X331925000Y-154200000D03*
%TD*%
D18*
%TO.C,SW2*%
X42900000Y-148249999D03*
X50900000Y-148249999D03*
X42900000Y-152750001D03*
X50900000Y-152750001D03*
%TD*%
D14*
%TO.C,D20*%
X201550000Y-157400000D03*
X201550000Y-160600000D03*
X206450000Y-160600000D03*
X206450000Y-157400000D03*
%TD*%
D19*
%TO.C,U3*%
X227000000Y-147700000D03*
X224700000Y-147700000D03*
D20*
X224700000Y-154000000D03*
D19*
X222400000Y-147700000D03*
%TD*%
D14*
%TO.C,D18*%
X181550000Y-157400000D03*
X181550000Y-160600000D03*
X186450000Y-160600000D03*
X186450000Y-157400000D03*
%TD*%
D16*
%TO.C,R4*%
X329080000Y-155800000D03*
X330100000Y-155800000D03*
%TD*%
D14*
%TO.C,D3*%
X31550000Y-157400000D03*
X31550000Y-160600000D03*
X36450000Y-160600000D03*
X36450000Y-157400000D03*
%TD*%
D18*
%TO.C,SW4*%
X201200000Y-148049999D03*
X209200000Y-148049999D03*
X201200000Y-152550001D03*
X209200000Y-152550001D03*
%TD*%
%TO.C,SW1*%
X211800000Y-148049999D03*
X219800000Y-148049999D03*
X211800000Y-152550001D03*
X219800000Y-152550001D03*
%TD*%
D14*
%TO.C,D5*%
X51550000Y-157400000D03*
X51550000Y-160600000D03*
X56450000Y-160600000D03*
X56450000Y-157400000D03*
%TD*%
%TO.C,D17*%
X171550000Y-157400000D03*
X171550000Y-160600000D03*
X176450000Y-160600000D03*
X176450000Y-157400000D03*
%TD*%
%TO.C,D13*%
X131550000Y-157400000D03*
X131550000Y-160600000D03*
X136450000Y-160600000D03*
X136450000Y-157400000D03*
%TD*%
D16*
%TO.C,R6*%
X21480000Y-154900000D03*
X22500000Y-154900000D03*
%TD*%
D14*
%TO.C,D21*%
X211550000Y-157400000D03*
X211550000Y-160600000D03*
X216450000Y-160600000D03*
X216450000Y-157400000D03*
%TD*%
D21*
%TO.C,R7*%
X265900000Y-149090000D03*
X265900000Y-150110000D03*
%TD*%
D14*
%TO.C,D23*%
X231550000Y-157300000D03*
X231550000Y-160500000D03*
X236450000Y-160500000D03*
X236450000Y-157300000D03*
%TD*%
%TO.C,D25*%
X251550000Y-157400000D03*
X251550000Y-160600000D03*
X256450000Y-160600000D03*
X256450000Y-157400000D03*
%TD*%
%TO.C,D14*%
X141550000Y-157400000D03*
X141550000Y-160600000D03*
X146450000Y-160600000D03*
X146450000Y-157400000D03*
%TD*%
%TO.C,D8*%
X81550000Y-157400000D03*
X81550000Y-160600000D03*
X86450000Y-160600000D03*
X86450000Y-157400000D03*
%TD*%
%TO.C,D7*%
X71550000Y-157400000D03*
X71550000Y-160600000D03*
X76450000Y-160600000D03*
X76450000Y-157400000D03*
%TD*%
%TO.C,D10*%
X101550000Y-157400000D03*
X101550000Y-160600000D03*
X106450000Y-160600000D03*
X106450000Y-157400000D03*
%TD*%
D18*
%TO.C,SW5*%
X21900000Y-148249999D03*
X29900000Y-148249999D03*
X21900000Y-152750001D03*
X29900000Y-152750001D03*
%TD*%
D14*
%TO.C,D6*%
X61550000Y-157400000D03*
X61550000Y-160600000D03*
X66450000Y-160600000D03*
X66450000Y-157400000D03*
%TD*%
D18*
%TO.C,SW3*%
X32400000Y-148249999D03*
X40400000Y-148249999D03*
X32400000Y-152750001D03*
X40400000Y-152750001D03*
%TD*%
D14*
%TO.C,D15*%
X151550000Y-157400000D03*
X151550000Y-160600000D03*
X156450000Y-160600000D03*
X156450000Y-157400000D03*
%TD*%
D16*
%TO.C,R5*%
X40180000Y-154800000D03*
X41200000Y-154800000D03*
%TD*%
D14*
%TO.C,D24*%
X241550000Y-157400000D03*
X241550000Y-160600000D03*
X246450000Y-160600000D03*
X246450000Y-157400000D03*
%TD*%
D22*
%TO.C,J3*%
X189810000Y-148550000D03*
X187270000Y-151850000D03*
X184730000Y-148550000D03*
X182190000Y-151850000D03*
%TD*%
D14*
%TO.C,D9*%
X91550000Y-157400000D03*
X91550000Y-160600000D03*
X96450000Y-160600000D03*
X96450000Y-157400000D03*
%TD*%
D16*
%TO.C,R1*%
X210780000Y-154700000D03*
X211800000Y-154700000D03*
%TD*%
D23*
%TO.C,U2*%
X260062500Y-149050000D03*
X260062500Y-150000000D03*
X260062500Y-150950000D03*
X262337500Y-150950000D03*
X262337500Y-149050000D03*
%TD*%
D16*
%TO.C,R2*%
X53590000Y-152500000D03*
X54610000Y-152500000D03*
%TD*%
D14*
%TO.C,D11*%
X111550000Y-157400000D03*
X111550000Y-160600000D03*
X116450000Y-160600000D03*
X116450000Y-157400000D03*
%TD*%
%TO.C,D16*%
X161550000Y-157400000D03*
X161550000Y-160600000D03*
X166450000Y-160600000D03*
X166450000Y-157400000D03*
%TD*%
%TO.C,D4*%
X41550000Y-157400000D03*
X41550000Y-160600000D03*
X46450000Y-160600000D03*
X46450000Y-157400000D03*
%TD*%
%TO.C,D12*%
X121550000Y-157400000D03*
X121550000Y-160600000D03*
X126450000Y-160600000D03*
X126450000Y-157400000D03*
%TD*%
D24*
%TO.C,BT1*%
X244670700Y-148730000D03*
X244670700Y-151270000D03*
%TD*%
D25*
%TO.C,U1*%
X309625000Y-154025000D03*
X309625000Y-154825000D03*
X309625000Y-155625000D03*
X309625000Y-156425000D03*
X309625000Y-157225000D03*
X309625000Y-158025000D03*
X309625000Y-158825000D03*
X309625000Y-159625000D03*
X309625000Y-160425000D03*
X309625000Y-161225000D03*
X309625000Y-162025000D03*
D26*
X310725000Y-162925000D03*
X311525000Y-162925000D03*
X312325000Y-162925000D03*
X313125000Y-162925000D03*
X313925000Y-162925000D03*
X314725000Y-162925000D03*
X315525000Y-162925000D03*
X316325000Y-162925000D03*
X317125000Y-162925000D03*
X317925000Y-162925000D03*
X318725000Y-162925000D03*
X319525000Y-162925000D03*
X320325000Y-162925000D03*
D25*
X321425000Y-162025000D03*
X321425000Y-161225000D03*
X321425000Y-160425000D03*
X321425000Y-159625000D03*
X321425000Y-158825000D03*
X321425000Y-158025000D03*
X321425000Y-157225000D03*
X321425000Y-156425000D03*
X321425000Y-155625000D03*
X321425000Y-154825000D03*
X321425000Y-154025000D03*
D26*
X320325000Y-153125000D03*
X319525000Y-153125000D03*
X318725000Y-153125000D03*
X317925000Y-153125000D03*
X317125000Y-153125000D03*
X316325000Y-153125000D03*
X315525000Y-153125000D03*
X314725000Y-153125000D03*
X313925000Y-153125000D03*
X313125000Y-153125000D03*
X312325000Y-153125000D03*
X311525000Y-153125000D03*
X310725000Y-153125000D03*
D27*
X313550000Y-156050000D03*
D28*
X313550000Y-158025000D03*
X313550000Y-160000000D03*
X315525000Y-156050000D03*
X315525000Y-158025000D03*
X315525000Y-160000000D03*
X317500000Y-156050000D03*
X317500000Y-158025000D03*
X317500000Y-160000000D03*
D29*
X321475000Y-153075000D03*
X321475000Y-162975000D03*
X309575000Y-162975000D03*
X309575000Y-153075000D03*
%TD*%
M02*
