%TF.GenerationSoftware,KiCad,Pcbnew,9.0.4*%
%TF.CreationDate,2025-09-26T11:32:48-04:00*%
%TF.ProjectId,PCRuler_KiCad,50435275-6c65-4725-9f4b-694361642e6b,rev?*%
%TF.SameCoordinates,Original*%
%TF.FileFunction,Soldermask,Top*%
%TF.FilePolarity,Negative*%
%FSLAX46Y46*%
G04 Gerber Fmt 4.6, Leading zero omitted, Abs format (unit mm)*
G04 Created by KiCad (PCBNEW 9.0.4) date 2025-09-26 11:32:48*
%MOMM*%
%LPD*%
G01*
G04 APERTURE LIST*
G04 Aperture macros list*
%AMRoundRect*
0 Rectangle with rounded corners*
0 $1 Rounding radius*
0 $2 $3 $4 $5 $6 $7 $8 $9 X,Y pos of 4 corners*
0 Add a 4 corners polygon primitive as box body*
4,1,4,$2,$3,$4,$5,$6,$7,$8,$9,$2,$3,0*
0 Add four circle primitives for the rounded corners*
1,1,$1+$1,$2,$3*
1,1,$1+$1,$4,$5*
1,1,$1+$1,$6,$7*
1,1,$1+$1,$8,$9*
0 Add four rect primitives between the rounded corners*
20,1,$1+$1,$2,$3,$4,$5,0*
20,1,$1+$1,$4,$5,$6,$7,0*
20,1,$1+$1,$6,$7,$8,$9,0*
20,1,$1+$1,$8,$9,$2,$3,0*%
G04 Aperture macros list end*
%ADD10RoundRect,0.249999X0.450001X-0.650001X0.450001X0.650001X-0.450001X0.650001X-0.450001X-0.650001X0*%
%ADD11RoundRect,0.150000X-0.825000X-0.150000X0.825000X-0.150000X0.825000X0.150000X-0.825000X0.150000X0*%
%ADD12RoundRect,0.137500X0.137500X-0.600000X0.137500X0.600000X-0.137500X0.600000X-0.137500X-0.600000X0*%
%ADD13RoundRect,0.137500X0.600000X-0.137500X0.600000X0.137500X-0.600000X0.137500X-0.600000X-0.137500X0*%
%ADD14C,0.900000*%
%ADD15RoundRect,0.135000X-0.315000X-0.365000X0.315000X-0.365000X0.315000X0.365000X-0.315000X0.365000X0*%
%ADD16RoundRect,0.082500X-0.767500X-0.192500X0.767500X-0.192500X0.767500X0.192500X-0.767500X0.192500X0*%
%ADD17RoundRect,0.135000X-0.185000X0.135000X-0.185000X-0.135000X0.185000X-0.135000X0.185000X0.135000X0*%
%ADD18RoundRect,0.135000X-0.135000X-0.185000X0.135000X-0.185000X0.135000X0.185000X-0.135000X0.185000X0*%
%ADD19RoundRect,0.150000X0.512500X0.150000X-0.512500X0.150000X-0.512500X-0.150000X0.512500X-0.150000X0*%
%ADD20RoundRect,0.243750X0.456250X-0.243750X0.456250X0.243750X-0.456250X0.243750X-0.456250X-0.243750X0*%
%ADD21RoundRect,0.243750X-0.243750X-0.456250X0.243750X-0.456250X0.243750X0.456250X-0.243750X0.456250X0*%
%ADD22RoundRect,0.249999X-1.450001X0.450001X-1.450001X-0.450001X1.450001X-0.450001X1.450001X0.450001X0*%
%ADD23RoundRect,0.249999X-0.450001X-1.450001X0.450001X-1.450001X0.450001X1.450001X-0.450001X1.450001X0*%
%ADD24RoundRect,0.249999X1.450001X-0.450001X1.450001X0.450001X-1.450001X0.450001X-1.450001X-0.450001X0*%
G04 APERTURE END LIST*
D10*
%TO.C,Y1*%
X262000000Y-154400000D03*
X262000000Y-150000000D03*
X259600000Y-150000000D03*
X259600000Y-154400000D03*
%TD*%
D11*
%TO.C,U3*%
X178050000Y-147380000D03*
X178050000Y-148650000D03*
X178050000Y-149920000D03*
X178050000Y-151190000D03*
X178050000Y-152460000D03*
X178050000Y-153730000D03*
X178050000Y-155000000D03*
X178050000Y-156270000D03*
X183000000Y-156270000D03*
X183000000Y-155000000D03*
X183000000Y-153730000D03*
X183000000Y-152460000D03*
X183000000Y-151190000D03*
X183000000Y-149920000D03*
X183000000Y-148650000D03*
X183000000Y-147380000D03*
%TD*%
D12*
%TO.C,U2*%
X72200000Y-159162500D03*
X73000000Y-159162500D03*
X73800000Y-159162500D03*
X74600000Y-159162500D03*
X75400000Y-159162500D03*
X76200000Y-159162500D03*
X77000000Y-159162500D03*
X77800000Y-159162500D03*
D13*
X79162500Y-157800000D03*
X79162500Y-157000000D03*
X79162500Y-156200000D03*
X79162500Y-155400000D03*
X79162500Y-154600000D03*
X79162500Y-153800000D03*
X79162500Y-153000000D03*
X79162500Y-152200000D03*
D12*
X77800000Y-150837500D03*
X77000000Y-150837500D03*
X76200000Y-150837500D03*
X75400000Y-150837500D03*
X74600000Y-150837500D03*
X73800000Y-150837500D03*
X73000000Y-150837500D03*
X72200000Y-150837500D03*
D13*
X70837500Y-152200000D03*
X70837500Y-153000000D03*
X70837500Y-153800000D03*
X70837500Y-154600000D03*
X70837500Y-155400000D03*
X70837500Y-156200000D03*
X70837500Y-157000000D03*
X70837500Y-157800000D03*
%TD*%
D11*
%TO.C,U1*%
X237525000Y-150095000D03*
X237525000Y-151365000D03*
X237525000Y-152635000D03*
X237525000Y-153905000D03*
X242475000Y-153905000D03*
X242475000Y-152635000D03*
X242475000Y-151365000D03*
X242475000Y-150095000D03*
%TD*%
D14*
%TO.C,SW2*%
X103000000Y-158000000D03*
X104950000Y-158000000D03*
D15*
X101925000Y-156450000D03*
X106025000Y-156450000D03*
X101925000Y-158050000D03*
X106025000Y-158050000D03*
D16*
X103975000Y-155825000D03*
%TD*%
D14*
%TO.C,SW1*%
X110975000Y-151950000D03*
X112925000Y-151950000D03*
D15*
X109900000Y-150400000D03*
X114000000Y-150400000D03*
X109900000Y-152000000D03*
X114000000Y-152000000D03*
D16*
X111950000Y-149775000D03*
%TD*%
D17*
%TO.C,R10*%
X125000000Y-149000000D03*
X125000000Y-150020000D03*
%TD*%
%TO.C,R9*%
X129000000Y-148990000D03*
X129000000Y-150010000D03*
%TD*%
%TO.C,R8*%
X132800000Y-149080000D03*
X132800000Y-150100000D03*
%TD*%
%TO.C,R7*%
X136700000Y-149190000D03*
X136700000Y-150210000D03*
%TD*%
%TO.C,R6*%
X140400000Y-149280000D03*
X140400000Y-150300000D03*
%TD*%
%TO.C,R5*%
X144100000Y-149080000D03*
X144100000Y-150100000D03*
%TD*%
%TO.C,R4*%
X147900000Y-149080000D03*
X147900000Y-150100000D03*
%TD*%
D18*
%TO.C,R3*%
X174280000Y-156300000D03*
X175300000Y-156300000D03*
%TD*%
D17*
%TO.C,R2*%
X233500000Y-152300000D03*
X233500000Y-153320000D03*
%TD*%
%TO.C,R1*%
X233500000Y-149880000D03*
X233500000Y-150900000D03*
%TD*%
D19*
%TO.C,Q1*%
X41275000Y-149900000D03*
X41275000Y-148950000D03*
X41275000Y-148000000D03*
X39000000Y-148000000D03*
X39000000Y-148950000D03*
X39000000Y-149900000D03*
%TD*%
D20*
%TO.C,D8*%
X125000000Y-154000000D03*
X125000000Y-152125000D03*
%TD*%
%TO.C,D7*%
X129000000Y-154037500D03*
X129000000Y-152162500D03*
%TD*%
%TO.C,D6*%
X132800000Y-154037500D03*
X132800000Y-152162500D03*
%TD*%
%TO.C,D5*%
X136700000Y-154000000D03*
X136700000Y-152125000D03*
%TD*%
%TO.C,D4*%
X140400000Y-154037500D03*
X140400000Y-152162500D03*
%TD*%
%TO.C,D3*%
X144100000Y-154037500D03*
X144100000Y-152162500D03*
%TD*%
%TO.C,D2*%
X147900000Y-154075000D03*
X147900000Y-152200000D03*
%TD*%
D21*
%TO.C,D1*%
X170362500Y-156400000D03*
X172237500Y-156400000D03*
%TD*%
D22*
%TO.C,C5*%
X191000000Y-146950000D03*
X191000000Y-151050000D03*
%TD*%
%TO.C,C4*%
X198000000Y-146950000D03*
X198000000Y-151050000D03*
%TD*%
%TO.C,C3*%
X205000000Y-146950000D03*
X205000000Y-151050000D03*
%TD*%
D23*
%TO.C,C2*%
X178250000Y-159900000D03*
X182350000Y-159900000D03*
%TD*%
D24*
%TO.C,C1*%
X89000000Y-154050000D03*
X89000000Y-149950000D03*
%TD*%
M02*
