%TF.GenerationSoftware,KiCad,Pcbnew,9.0.4*%
%TF.CreationDate,2025-09-26T11:32:48-04:00*%
%TF.ProjectId,PCRuler_KiCad,50435275-6c65-4725-9f4b-694361642e6b,rev?*%
%TF.SameCoordinates,Original*%
%TF.FileFunction,Legend,Top*%
%TF.FilePolarity,Positive*%
%FSLAX46Y46*%
G04 Gerber Fmt 4.6, Leading zero omitted, Abs format (unit mm)*
G04 Created by KiCad (PCBNEW 9.0.4) date 2025-09-26 11:32:48*
%MOMM*%
%LPD*%
G01*
G04 APERTURE LIST*
%ADD10C,0.100000*%
%ADD11C,0.150000*%
%ADD12C,0.120000*%
G04 APERTURE END LIST*
D10*
X261000000Y-168000000D02*
X261000000Y-166000000D01*
X262000000Y-168000000D02*
X262000000Y-166000000D01*
X265000000Y-168000000D02*
X265000000Y-166000000D01*
X264000000Y-168000000D02*
X264000000Y-166000000D01*
X267000000Y-168000000D02*
X267000000Y-166000000D01*
X266000000Y-168000000D02*
X266000000Y-166000000D01*
X263000000Y-168000000D02*
X263000000Y-166000000D01*
X268000000Y-168000000D02*
X268000000Y-166000000D01*
X269000000Y-168000000D02*
X269000000Y-166000000D01*
X250000000Y-168000000D02*
X250000000Y-164000000D01*
X241000000Y-168000000D02*
X241000000Y-166000000D01*
X242000000Y-168000000D02*
X242000000Y-166000000D01*
X245000000Y-168000000D02*
X245000000Y-166000000D01*
X244000000Y-168000000D02*
X244000000Y-166000000D01*
X247000000Y-168000000D02*
X247000000Y-166000000D01*
X246000000Y-168000000D02*
X246000000Y-166000000D01*
X260000000Y-168000000D02*
X260000000Y-164000000D01*
X251000000Y-168000000D02*
X251000000Y-166000000D01*
X252000000Y-168000000D02*
X252000000Y-166000000D01*
X255000000Y-168000000D02*
X255000000Y-166000000D01*
X254000000Y-168000000D02*
X254000000Y-166000000D01*
X257000000Y-168000000D02*
X257000000Y-166000000D01*
X256000000Y-168000000D02*
X256000000Y-166000000D01*
X253000000Y-168000000D02*
X253000000Y-166000000D01*
X258000000Y-168000000D02*
X258000000Y-166000000D01*
X259000000Y-168000000D02*
X259000000Y-166000000D01*
X243000000Y-168000000D02*
X243000000Y-166000000D01*
X248000000Y-168000000D02*
X248000000Y-166000000D01*
X249000000Y-168000000D02*
X249000000Y-166000000D01*
X230000000Y-168000000D02*
X230000000Y-164000000D01*
X221000000Y-168000000D02*
X221000000Y-166000000D01*
X222000000Y-168000000D02*
X222000000Y-166000000D01*
X225000000Y-168000000D02*
X225000000Y-166000000D01*
X224000000Y-168000000D02*
X224000000Y-166000000D01*
X227000000Y-168000000D02*
X227000000Y-166000000D01*
X226000000Y-168000000D02*
X226000000Y-166000000D01*
X240000000Y-168000000D02*
X240000000Y-164000000D01*
X231000000Y-168000000D02*
X231000000Y-166000000D01*
X232000000Y-168000000D02*
X232000000Y-166000000D01*
X235000000Y-168000000D02*
X235000000Y-166000000D01*
X234000000Y-168000000D02*
X234000000Y-166000000D01*
X237000000Y-168000000D02*
X237000000Y-166000000D01*
X236000000Y-168000000D02*
X236000000Y-166000000D01*
X233000000Y-168000000D02*
X233000000Y-166000000D01*
X238000000Y-168000000D02*
X238000000Y-166000000D01*
X239000000Y-168000000D02*
X239000000Y-166000000D01*
X223000000Y-168000000D02*
X223000000Y-166000000D01*
X228000000Y-168000000D02*
X228000000Y-166000000D01*
X229000000Y-168000000D02*
X229000000Y-166000000D01*
X210000000Y-168000000D02*
X210000000Y-164000000D01*
X201000000Y-168000000D02*
X201000000Y-166000000D01*
X202000000Y-168000000D02*
X202000000Y-166000000D01*
X205000000Y-168000000D02*
X205000000Y-166000000D01*
X204000000Y-168000000D02*
X204000000Y-166000000D01*
X207000000Y-168000000D02*
X207000000Y-166000000D01*
X206000000Y-168000000D02*
X206000000Y-166000000D01*
X220000000Y-168000000D02*
X220000000Y-164000000D01*
X211000000Y-168000000D02*
X211000000Y-166000000D01*
X212000000Y-168000000D02*
X212000000Y-166000000D01*
X215000000Y-168000000D02*
X215000000Y-166000000D01*
X214000000Y-168000000D02*
X214000000Y-166000000D01*
X217000000Y-168000000D02*
X217000000Y-166000000D01*
X216000000Y-168000000D02*
X216000000Y-166000000D01*
X213000000Y-168000000D02*
X213000000Y-166000000D01*
X218000000Y-168000000D02*
X218000000Y-166000000D01*
X219000000Y-168000000D02*
X219000000Y-166000000D01*
X203000000Y-168000000D02*
X203000000Y-166000000D01*
X208000000Y-168000000D02*
X208000000Y-166000000D01*
X209000000Y-168000000D02*
X209000000Y-166000000D01*
X190000000Y-168000000D02*
X190000000Y-164000000D01*
X181000000Y-168000000D02*
X181000000Y-166000000D01*
X182000000Y-168000000D02*
X182000000Y-166000000D01*
X185000000Y-168000000D02*
X185000000Y-166000000D01*
X184000000Y-168000000D02*
X184000000Y-166000000D01*
X187000000Y-168000000D02*
X187000000Y-166000000D01*
X186000000Y-168000000D02*
X186000000Y-166000000D01*
X200000000Y-168000000D02*
X200000000Y-164000000D01*
X191000000Y-168000000D02*
X191000000Y-166000000D01*
X192000000Y-168000000D02*
X192000000Y-166000000D01*
X195000000Y-168000000D02*
X195000000Y-166000000D01*
X194000000Y-168000000D02*
X194000000Y-166000000D01*
X197000000Y-168000000D02*
X197000000Y-166000000D01*
X196000000Y-168000000D02*
X196000000Y-166000000D01*
X193000000Y-168000000D02*
X193000000Y-166000000D01*
X198000000Y-168000000D02*
X198000000Y-166000000D01*
X199000000Y-168000000D02*
X199000000Y-166000000D01*
X183000000Y-168000000D02*
X183000000Y-166000000D01*
X188000000Y-168000000D02*
X188000000Y-166000000D01*
X189000000Y-168000000D02*
X189000000Y-166000000D01*
X170000000Y-168000000D02*
X170000000Y-164000000D01*
X161000000Y-168000000D02*
X161000000Y-166000000D01*
X162000000Y-168000000D02*
X162000000Y-166000000D01*
X165000000Y-168000000D02*
X165000000Y-166000000D01*
X164000000Y-168000000D02*
X164000000Y-166000000D01*
X167000000Y-168000000D02*
X167000000Y-166000000D01*
X166000000Y-168000000D02*
X166000000Y-166000000D01*
X180000000Y-168000000D02*
X180000000Y-164000000D01*
X171000000Y-168000000D02*
X171000000Y-166000000D01*
X172000000Y-168000000D02*
X172000000Y-166000000D01*
X175000000Y-168000000D02*
X175000000Y-166000000D01*
X174000000Y-168000000D02*
X174000000Y-166000000D01*
X177000000Y-168000000D02*
X177000000Y-166000000D01*
X176000000Y-168000000D02*
X176000000Y-166000000D01*
X173000000Y-168000000D02*
X173000000Y-166000000D01*
X178000000Y-168000000D02*
X178000000Y-166000000D01*
X179000000Y-168000000D02*
X179000000Y-166000000D01*
X163000000Y-168000000D02*
X163000000Y-166000000D01*
X168000000Y-168000000D02*
X168000000Y-166000000D01*
X169000000Y-168000000D02*
X169000000Y-166000000D01*
X150000000Y-168000000D02*
X150000000Y-164000000D01*
X141000000Y-168000000D02*
X141000000Y-166000000D01*
X142000000Y-168000000D02*
X142000000Y-166000000D01*
X145000000Y-168000000D02*
X145000000Y-166000000D01*
X144000000Y-168000000D02*
X144000000Y-166000000D01*
X147000000Y-168000000D02*
X147000000Y-166000000D01*
X146000000Y-168000000D02*
X146000000Y-166000000D01*
X160000000Y-168000000D02*
X160000000Y-164000000D01*
X151000000Y-168000000D02*
X151000000Y-166000000D01*
X152000000Y-168000000D02*
X152000000Y-166000000D01*
X155000000Y-168000000D02*
X155000000Y-166000000D01*
X154000000Y-168000000D02*
X154000000Y-166000000D01*
X157000000Y-168000000D02*
X157000000Y-166000000D01*
X156000000Y-168000000D02*
X156000000Y-166000000D01*
X153000000Y-168000000D02*
X153000000Y-166000000D01*
X158000000Y-168000000D02*
X158000000Y-166000000D01*
X159000000Y-168000000D02*
X159000000Y-166000000D01*
X143000000Y-168000000D02*
X143000000Y-166000000D01*
X148000000Y-168000000D02*
X148000000Y-166000000D01*
X149000000Y-168000000D02*
X149000000Y-166000000D01*
X130000000Y-168000000D02*
X130000000Y-164000000D01*
X121000000Y-168000000D02*
X121000000Y-166000000D01*
X122000000Y-168000000D02*
X122000000Y-166000000D01*
X125000000Y-168000000D02*
X125000000Y-166000000D01*
X124000000Y-168000000D02*
X124000000Y-166000000D01*
X127000000Y-168000000D02*
X127000000Y-166000000D01*
X126000000Y-168000000D02*
X126000000Y-166000000D01*
X140000000Y-168000000D02*
X140000000Y-164000000D01*
X131000000Y-168000000D02*
X131000000Y-166000000D01*
X132000000Y-168000000D02*
X132000000Y-166000000D01*
X135000000Y-168000000D02*
X135000000Y-166000000D01*
X134000000Y-168000000D02*
X134000000Y-166000000D01*
X137000000Y-168000000D02*
X137000000Y-166000000D01*
X136000000Y-168000000D02*
X136000000Y-166000000D01*
X133000000Y-168000000D02*
X133000000Y-166000000D01*
X138000000Y-168000000D02*
X138000000Y-166000000D01*
X139000000Y-168000000D02*
X139000000Y-166000000D01*
X123000000Y-168000000D02*
X123000000Y-166000000D01*
X128000000Y-168000000D02*
X128000000Y-166000000D01*
X129000000Y-168000000D02*
X129000000Y-166000000D01*
X110000000Y-168000000D02*
X110000000Y-164000000D01*
X101000000Y-168000000D02*
X101000000Y-166000000D01*
X102000000Y-168000000D02*
X102000000Y-166000000D01*
X105000000Y-168000000D02*
X105000000Y-166000000D01*
X104000000Y-168000000D02*
X104000000Y-166000000D01*
X107000000Y-168000000D02*
X107000000Y-166000000D01*
X106000000Y-168000000D02*
X106000000Y-166000000D01*
X120000000Y-168000000D02*
X120000000Y-164000000D01*
X111000000Y-168000000D02*
X111000000Y-166000000D01*
X112000000Y-168000000D02*
X112000000Y-166000000D01*
X115000000Y-168000000D02*
X115000000Y-166000000D01*
X114000000Y-168000000D02*
X114000000Y-166000000D01*
X117000000Y-168000000D02*
X117000000Y-166000000D01*
X116000000Y-168000000D02*
X116000000Y-166000000D01*
X113000000Y-168000000D02*
X113000000Y-166000000D01*
X118000000Y-168000000D02*
X118000000Y-166000000D01*
X119000000Y-168000000D02*
X119000000Y-166000000D01*
X103000000Y-168000000D02*
X103000000Y-166000000D01*
X108000000Y-168000000D02*
X108000000Y-166000000D01*
X109000000Y-168000000D02*
X109000000Y-166000000D01*
X70000000Y-168000000D02*
X70000000Y-164000000D01*
X61000000Y-168000000D02*
X61000000Y-166000000D01*
X62000000Y-168000000D02*
X62000000Y-166000000D01*
X65000000Y-168000000D02*
X65000000Y-166000000D01*
X83000000Y-168000000D02*
X83000000Y-166000000D01*
X99000000Y-168000000D02*
X99000000Y-166000000D01*
X95000000Y-168000000D02*
X95000000Y-166000000D01*
X93000000Y-168000000D02*
X93000000Y-166000000D01*
X90000000Y-168000000D02*
X90000000Y-164000000D01*
X81000000Y-168000000D02*
X81000000Y-166000000D01*
X82000000Y-168000000D02*
X82000000Y-166000000D01*
X85000000Y-168000000D02*
X85000000Y-166000000D01*
X84000000Y-168000000D02*
X84000000Y-166000000D01*
X64000000Y-168000000D02*
X64000000Y-166000000D01*
X92000000Y-168000000D02*
X92000000Y-166000000D01*
X94000000Y-168000000D02*
X94000000Y-166000000D01*
X97000000Y-168000000D02*
X97000000Y-166000000D01*
X96000000Y-168000000D02*
X96000000Y-166000000D01*
X88000000Y-168000000D02*
X88000000Y-166000000D01*
X98000000Y-168000000D02*
X98000000Y-166000000D01*
X87000000Y-168000000D02*
X87000000Y-166000000D01*
X86000000Y-168000000D02*
X86000000Y-166000000D01*
X100000000Y-168000000D02*
X100000000Y-164000000D01*
X91000000Y-168000000D02*
X91000000Y-166000000D01*
X67000000Y-168000000D02*
X67000000Y-166000000D01*
X66000000Y-168000000D02*
X66000000Y-166000000D01*
X80000000Y-168000000D02*
X80000000Y-164000000D01*
X71000000Y-168000000D02*
X71000000Y-166000000D01*
X72000000Y-168000000D02*
X72000000Y-166000000D01*
X75000000Y-168000000D02*
X75000000Y-166000000D01*
X74000000Y-168000000D02*
X74000000Y-166000000D01*
X77000000Y-168000000D02*
X77000000Y-166000000D01*
X76000000Y-168000000D02*
X76000000Y-166000000D01*
X73000000Y-168000000D02*
X73000000Y-166000000D01*
X78000000Y-168000000D02*
X78000000Y-166000000D01*
X79000000Y-168000000D02*
X79000000Y-166000000D01*
X63000000Y-168000000D02*
X63000000Y-166000000D01*
X68000000Y-168000000D02*
X68000000Y-166000000D01*
X89000000Y-168000000D02*
X89000000Y-166000000D01*
X69000000Y-168000000D02*
X69000000Y-166000000D01*
X50000000Y-168000000D02*
X50000000Y-164000000D01*
X41000000Y-168000000D02*
X41000000Y-166000000D01*
X42000000Y-168000000D02*
X42000000Y-166000000D01*
X45000000Y-168000000D02*
X45000000Y-166000000D01*
X44000000Y-168000000D02*
X44000000Y-166000000D01*
X47000000Y-168000000D02*
X47000000Y-166000000D01*
X46000000Y-168000000D02*
X46000000Y-166000000D01*
X60000000Y-168000000D02*
X60000000Y-164000000D01*
X51000000Y-168000000D02*
X51000000Y-166000000D01*
X52000000Y-168000000D02*
X52000000Y-166000000D01*
X55000000Y-168000000D02*
X55000000Y-166000000D01*
X54000000Y-168000000D02*
X54000000Y-166000000D01*
X57000000Y-168000000D02*
X57000000Y-166000000D01*
X56000000Y-168000000D02*
X56000000Y-166000000D01*
X53000000Y-168000000D02*
X53000000Y-166000000D01*
X58000000Y-168000000D02*
X58000000Y-166000000D01*
X59000000Y-168000000D02*
X59000000Y-166000000D01*
X43000000Y-168000000D02*
X43000000Y-166000000D01*
X48000000Y-168000000D02*
X48000000Y-166000000D01*
X49000000Y-168000000D02*
X49000000Y-166000000D01*
X40000000Y-168000000D02*
X40000000Y-164000000D01*
X31000000Y-168000000D02*
X31000000Y-166000000D01*
X32000000Y-168000000D02*
X32000000Y-166000000D01*
X35000000Y-168000000D02*
X35000000Y-166000000D01*
X34000000Y-168000000D02*
X34000000Y-166000000D01*
X37000000Y-168000000D02*
X37000000Y-166000000D01*
X36000000Y-168000000D02*
X36000000Y-166000000D01*
X33000000Y-168000000D02*
X33000000Y-166000000D01*
X38000000Y-168000000D02*
X38000000Y-166000000D01*
X39000000Y-168000000D02*
X39000000Y-166000000D01*
X30000000Y-168000000D02*
X30000000Y-164000000D01*
X29000000Y-168000000D02*
X29000000Y-166000000D01*
X25000000Y-168000000D02*
X25000000Y-166000000D01*
X26000000Y-168000000D02*
X26000000Y-166000000D01*
X28000000Y-168000000D02*
X28000000Y-166000000D01*
X27000000Y-168000000D02*
X27000000Y-166000000D01*
X24000000Y-168000000D02*
X24000000Y-166000000D01*
X23000000Y-168000000D02*
X23000000Y-166000000D01*
X22000000Y-168000000D02*
X22000000Y-166000000D01*
X21000000Y-168000000D02*
X21000000Y-166000000D01*
D11*
X257828628Y-152676190D02*
X258304819Y-152676190D01*
X257304819Y-153009523D02*
X257828628Y-152676190D01*
X257828628Y-152676190D02*
X257304819Y-152342857D01*
X258304819Y-151485714D02*
X258304819Y-152057142D01*
X258304819Y-151771428D02*
X257304819Y-151771428D01*
X257304819Y-151771428D02*
X257447676Y-151866666D01*
X257447676Y-151866666D02*
X257542914Y-151961904D01*
X257542914Y-151961904D02*
X257590533Y-152057142D01*
X179763095Y-145379819D02*
X179763095Y-146189342D01*
X179763095Y-146189342D02*
X179810714Y-146284580D01*
X179810714Y-146284580D02*
X179858333Y-146332200D01*
X179858333Y-146332200D02*
X179953571Y-146379819D01*
X179953571Y-146379819D02*
X180144047Y-146379819D01*
X180144047Y-146379819D02*
X180239285Y-146332200D01*
X180239285Y-146332200D02*
X180286904Y-146284580D01*
X180286904Y-146284580D02*
X180334523Y-146189342D01*
X180334523Y-146189342D02*
X180334523Y-145379819D01*
X180715476Y-145379819D02*
X181334523Y-145379819D01*
X181334523Y-145379819D02*
X181001190Y-145760771D01*
X181001190Y-145760771D02*
X181144047Y-145760771D01*
X181144047Y-145760771D02*
X181239285Y-145808390D01*
X181239285Y-145808390D02*
X181286904Y-145856009D01*
X181286904Y-145856009D02*
X181334523Y-145951247D01*
X181334523Y-145951247D02*
X181334523Y-146189342D01*
X181334523Y-146189342D02*
X181286904Y-146284580D01*
X181286904Y-146284580D02*
X181239285Y-146332200D01*
X181239285Y-146332200D02*
X181144047Y-146379819D01*
X181144047Y-146379819D02*
X180858333Y-146379819D01*
X180858333Y-146379819D02*
X180763095Y-146332200D01*
X180763095Y-146332200D02*
X180715476Y-146284580D01*
X68604819Y-155761904D02*
X69414342Y-155761904D01*
X69414342Y-155761904D02*
X69509580Y-155714285D01*
X69509580Y-155714285D02*
X69557200Y-155666666D01*
X69557200Y-155666666D02*
X69604819Y-155571428D01*
X69604819Y-155571428D02*
X69604819Y-155380952D01*
X69604819Y-155380952D02*
X69557200Y-155285714D01*
X69557200Y-155285714D02*
X69509580Y-155238095D01*
X69509580Y-155238095D02*
X69414342Y-155190476D01*
X69414342Y-155190476D02*
X68604819Y-155190476D01*
X68700057Y-154761904D02*
X68652438Y-154714285D01*
X68652438Y-154714285D02*
X68604819Y-154619047D01*
X68604819Y-154619047D02*
X68604819Y-154380952D01*
X68604819Y-154380952D02*
X68652438Y-154285714D01*
X68652438Y-154285714D02*
X68700057Y-154238095D01*
X68700057Y-154238095D02*
X68795295Y-154190476D01*
X68795295Y-154190476D02*
X68890533Y-154190476D01*
X68890533Y-154190476D02*
X69033390Y-154238095D01*
X69033390Y-154238095D02*
X69604819Y-154809523D01*
X69604819Y-154809523D02*
X69604819Y-154190476D01*
X239238095Y-148054819D02*
X239238095Y-148864342D01*
X239238095Y-148864342D02*
X239285714Y-148959580D01*
X239285714Y-148959580D02*
X239333333Y-149007200D01*
X239333333Y-149007200D02*
X239428571Y-149054819D01*
X239428571Y-149054819D02*
X239619047Y-149054819D01*
X239619047Y-149054819D02*
X239714285Y-149007200D01*
X239714285Y-149007200D02*
X239761904Y-148959580D01*
X239761904Y-148959580D02*
X239809523Y-148864342D01*
X239809523Y-148864342D02*
X239809523Y-148054819D01*
X240809523Y-149054819D02*
X240238095Y-149054819D01*
X240523809Y-149054819D02*
X240523809Y-148054819D01*
X240523809Y-148054819D02*
X240428571Y-148197676D01*
X240428571Y-148197676D02*
X240333333Y-148292914D01*
X240333333Y-148292914D02*
X240238095Y-148340533D01*
X102641667Y-155057200D02*
X102784524Y-155104819D01*
X102784524Y-155104819D02*
X103022619Y-155104819D01*
X103022619Y-155104819D02*
X103117857Y-155057200D01*
X103117857Y-155057200D02*
X103165476Y-155009580D01*
X103165476Y-155009580D02*
X103213095Y-154914342D01*
X103213095Y-154914342D02*
X103213095Y-154819104D01*
X103213095Y-154819104D02*
X103165476Y-154723866D01*
X103165476Y-154723866D02*
X103117857Y-154676247D01*
X103117857Y-154676247D02*
X103022619Y-154628628D01*
X103022619Y-154628628D02*
X102832143Y-154581009D01*
X102832143Y-154581009D02*
X102736905Y-154533390D01*
X102736905Y-154533390D02*
X102689286Y-154485771D01*
X102689286Y-154485771D02*
X102641667Y-154390533D01*
X102641667Y-154390533D02*
X102641667Y-154295295D01*
X102641667Y-154295295D02*
X102689286Y-154200057D01*
X102689286Y-154200057D02*
X102736905Y-154152438D01*
X102736905Y-154152438D02*
X102832143Y-154104819D01*
X102832143Y-154104819D02*
X103070238Y-154104819D01*
X103070238Y-154104819D02*
X103213095Y-154152438D01*
X103546429Y-154104819D02*
X103784524Y-155104819D01*
X103784524Y-155104819D02*
X103975000Y-154390533D01*
X103975000Y-154390533D02*
X104165476Y-155104819D01*
X104165476Y-155104819D02*
X104403572Y-154104819D01*
X104736905Y-154200057D02*
X104784524Y-154152438D01*
X104784524Y-154152438D02*
X104879762Y-154104819D01*
X104879762Y-154104819D02*
X105117857Y-154104819D01*
X105117857Y-154104819D02*
X105213095Y-154152438D01*
X105213095Y-154152438D02*
X105260714Y-154200057D01*
X105260714Y-154200057D02*
X105308333Y-154295295D01*
X105308333Y-154295295D02*
X105308333Y-154390533D01*
X105308333Y-154390533D02*
X105260714Y-154533390D01*
X105260714Y-154533390D02*
X104689286Y-155104819D01*
X104689286Y-155104819D02*
X105308333Y-155104819D01*
X110616667Y-149007200D02*
X110759524Y-149054819D01*
X110759524Y-149054819D02*
X110997619Y-149054819D01*
X110997619Y-149054819D02*
X111092857Y-149007200D01*
X111092857Y-149007200D02*
X111140476Y-148959580D01*
X111140476Y-148959580D02*
X111188095Y-148864342D01*
X111188095Y-148864342D02*
X111188095Y-148769104D01*
X111188095Y-148769104D02*
X111140476Y-148673866D01*
X111140476Y-148673866D02*
X111092857Y-148626247D01*
X111092857Y-148626247D02*
X110997619Y-148578628D01*
X110997619Y-148578628D02*
X110807143Y-148531009D01*
X110807143Y-148531009D02*
X110711905Y-148483390D01*
X110711905Y-148483390D02*
X110664286Y-148435771D01*
X110664286Y-148435771D02*
X110616667Y-148340533D01*
X110616667Y-148340533D02*
X110616667Y-148245295D01*
X110616667Y-148245295D02*
X110664286Y-148150057D01*
X110664286Y-148150057D02*
X110711905Y-148102438D01*
X110711905Y-148102438D02*
X110807143Y-148054819D01*
X110807143Y-148054819D02*
X111045238Y-148054819D01*
X111045238Y-148054819D02*
X111188095Y-148102438D01*
X111521429Y-148054819D02*
X111759524Y-149054819D01*
X111759524Y-149054819D02*
X111950000Y-148340533D01*
X111950000Y-148340533D02*
X112140476Y-149054819D01*
X112140476Y-149054819D02*
X112378572Y-148054819D01*
X113283333Y-149054819D02*
X112711905Y-149054819D01*
X112997619Y-149054819D02*
X112997619Y-148054819D01*
X112997619Y-148054819D02*
X112902381Y-148197676D01*
X112902381Y-148197676D02*
X112807143Y-148292914D01*
X112807143Y-148292914D02*
X112711905Y-148340533D01*
X126624819Y-150152857D02*
X126148628Y-150486190D01*
X126624819Y-150724285D02*
X125624819Y-150724285D01*
X125624819Y-150724285D02*
X125624819Y-150343333D01*
X125624819Y-150343333D02*
X125672438Y-150248095D01*
X125672438Y-150248095D02*
X125720057Y-150200476D01*
X125720057Y-150200476D02*
X125815295Y-150152857D01*
X125815295Y-150152857D02*
X125958152Y-150152857D01*
X125958152Y-150152857D02*
X126053390Y-150200476D01*
X126053390Y-150200476D02*
X126101009Y-150248095D01*
X126101009Y-150248095D02*
X126148628Y-150343333D01*
X126148628Y-150343333D02*
X126148628Y-150724285D01*
X126624819Y-149200476D02*
X126624819Y-149771904D01*
X126624819Y-149486190D02*
X125624819Y-149486190D01*
X125624819Y-149486190D02*
X125767676Y-149581428D01*
X125767676Y-149581428D02*
X125862914Y-149676666D01*
X125862914Y-149676666D02*
X125910533Y-149771904D01*
X125624819Y-148581428D02*
X125624819Y-148486190D01*
X125624819Y-148486190D02*
X125672438Y-148390952D01*
X125672438Y-148390952D02*
X125720057Y-148343333D01*
X125720057Y-148343333D02*
X125815295Y-148295714D01*
X125815295Y-148295714D02*
X126005771Y-148248095D01*
X126005771Y-148248095D02*
X126243866Y-148248095D01*
X126243866Y-148248095D02*
X126434342Y-148295714D01*
X126434342Y-148295714D02*
X126529580Y-148343333D01*
X126529580Y-148343333D02*
X126577200Y-148390952D01*
X126577200Y-148390952D02*
X126624819Y-148486190D01*
X126624819Y-148486190D02*
X126624819Y-148581428D01*
X126624819Y-148581428D02*
X126577200Y-148676666D01*
X126577200Y-148676666D02*
X126529580Y-148724285D01*
X126529580Y-148724285D02*
X126434342Y-148771904D01*
X126434342Y-148771904D02*
X126243866Y-148819523D01*
X126243866Y-148819523D02*
X126005771Y-148819523D01*
X126005771Y-148819523D02*
X125815295Y-148771904D01*
X125815295Y-148771904D02*
X125720057Y-148724285D01*
X125720057Y-148724285D02*
X125672438Y-148676666D01*
X125672438Y-148676666D02*
X125624819Y-148581428D01*
X130624819Y-149666666D02*
X130148628Y-149999999D01*
X130624819Y-150238094D02*
X129624819Y-150238094D01*
X129624819Y-150238094D02*
X129624819Y-149857142D01*
X129624819Y-149857142D02*
X129672438Y-149761904D01*
X129672438Y-149761904D02*
X129720057Y-149714285D01*
X129720057Y-149714285D02*
X129815295Y-149666666D01*
X129815295Y-149666666D02*
X129958152Y-149666666D01*
X129958152Y-149666666D02*
X130053390Y-149714285D01*
X130053390Y-149714285D02*
X130101009Y-149761904D01*
X130101009Y-149761904D02*
X130148628Y-149857142D01*
X130148628Y-149857142D02*
X130148628Y-150238094D01*
X130624819Y-149190475D02*
X130624819Y-148999999D01*
X130624819Y-148999999D02*
X130577200Y-148904761D01*
X130577200Y-148904761D02*
X130529580Y-148857142D01*
X130529580Y-148857142D02*
X130386723Y-148761904D01*
X130386723Y-148761904D02*
X130196247Y-148714285D01*
X130196247Y-148714285D02*
X129815295Y-148714285D01*
X129815295Y-148714285D02*
X129720057Y-148761904D01*
X129720057Y-148761904D02*
X129672438Y-148809523D01*
X129672438Y-148809523D02*
X129624819Y-148904761D01*
X129624819Y-148904761D02*
X129624819Y-149095237D01*
X129624819Y-149095237D02*
X129672438Y-149190475D01*
X129672438Y-149190475D02*
X129720057Y-149238094D01*
X129720057Y-149238094D02*
X129815295Y-149285713D01*
X129815295Y-149285713D02*
X130053390Y-149285713D01*
X130053390Y-149285713D02*
X130148628Y-149238094D01*
X130148628Y-149238094D02*
X130196247Y-149190475D01*
X130196247Y-149190475D02*
X130243866Y-149095237D01*
X130243866Y-149095237D02*
X130243866Y-148904761D01*
X130243866Y-148904761D02*
X130196247Y-148809523D01*
X130196247Y-148809523D02*
X130148628Y-148761904D01*
X130148628Y-148761904D02*
X130053390Y-148714285D01*
X134424819Y-149756666D02*
X133948628Y-150089999D01*
X134424819Y-150328094D02*
X133424819Y-150328094D01*
X133424819Y-150328094D02*
X133424819Y-149947142D01*
X133424819Y-149947142D02*
X133472438Y-149851904D01*
X133472438Y-149851904D02*
X133520057Y-149804285D01*
X133520057Y-149804285D02*
X133615295Y-149756666D01*
X133615295Y-149756666D02*
X133758152Y-149756666D01*
X133758152Y-149756666D02*
X133853390Y-149804285D01*
X133853390Y-149804285D02*
X133901009Y-149851904D01*
X133901009Y-149851904D02*
X133948628Y-149947142D01*
X133948628Y-149947142D02*
X133948628Y-150328094D01*
X133853390Y-149185237D02*
X133805771Y-149280475D01*
X133805771Y-149280475D02*
X133758152Y-149328094D01*
X133758152Y-149328094D02*
X133662914Y-149375713D01*
X133662914Y-149375713D02*
X133615295Y-149375713D01*
X133615295Y-149375713D02*
X133520057Y-149328094D01*
X133520057Y-149328094D02*
X133472438Y-149280475D01*
X133472438Y-149280475D02*
X133424819Y-149185237D01*
X133424819Y-149185237D02*
X133424819Y-148994761D01*
X133424819Y-148994761D02*
X133472438Y-148899523D01*
X133472438Y-148899523D02*
X133520057Y-148851904D01*
X133520057Y-148851904D02*
X133615295Y-148804285D01*
X133615295Y-148804285D02*
X133662914Y-148804285D01*
X133662914Y-148804285D02*
X133758152Y-148851904D01*
X133758152Y-148851904D02*
X133805771Y-148899523D01*
X133805771Y-148899523D02*
X133853390Y-148994761D01*
X133853390Y-148994761D02*
X133853390Y-149185237D01*
X133853390Y-149185237D02*
X133901009Y-149280475D01*
X133901009Y-149280475D02*
X133948628Y-149328094D01*
X133948628Y-149328094D02*
X134043866Y-149375713D01*
X134043866Y-149375713D02*
X134234342Y-149375713D01*
X134234342Y-149375713D02*
X134329580Y-149328094D01*
X134329580Y-149328094D02*
X134377200Y-149280475D01*
X134377200Y-149280475D02*
X134424819Y-149185237D01*
X134424819Y-149185237D02*
X134424819Y-148994761D01*
X134424819Y-148994761D02*
X134377200Y-148899523D01*
X134377200Y-148899523D02*
X134329580Y-148851904D01*
X134329580Y-148851904D02*
X134234342Y-148804285D01*
X134234342Y-148804285D02*
X134043866Y-148804285D01*
X134043866Y-148804285D02*
X133948628Y-148851904D01*
X133948628Y-148851904D02*
X133901009Y-148899523D01*
X133901009Y-148899523D02*
X133853390Y-148994761D01*
X138324819Y-149866666D02*
X137848628Y-150199999D01*
X138324819Y-150438094D02*
X137324819Y-150438094D01*
X137324819Y-150438094D02*
X137324819Y-150057142D01*
X137324819Y-150057142D02*
X137372438Y-149961904D01*
X137372438Y-149961904D02*
X137420057Y-149914285D01*
X137420057Y-149914285D02*
X137515295Y-149866666D01*
X137515295Y-149866666D02*
X137658152Y-149866666D01*
X137658152Y-149866666D02*
X137753390Y-149914285D01*
X137753390Y-149914285D02*
X137801009Y-149961904D01*
X137801009Y-149961904D02*
X137848628Y-150057142D01*
X137848628Y-150057142D02*
X137848628Y-150438094D01*
X137324819Y-149533332D02*
X137324819Y-148866666D01*
X137324819Y-148866666D02*
X138324819Y-149295237D01*
X142024819Y-149956666D02*
X141548628Y-150289999D01*
X142024819Y-150528094D02*
X141024819Y-150528094D01*
X141024819Y-150528094D02*
X141024819Y-150147142D01*
X141024819Y-150147142D02*
X141072438Y-150051904D01*
X141072438Y-150051904D02*
X141120057Y-150004285D01*
X141120057Y-150004285D02*
X141215295Y-149956666D01*
X141215295Y-149956666D02*
X141358152Y-149956666D01*
X141358152Y-149956666D02*
X141453390Y-150004285D01*
X141453390Y-150004285D02*
X141501009Y-150051904D01*
X141501009Y-150051904D02*
X141548628Y-150147142D01*
X141548628Y-150147142D02*
X141548628Y-150528094D01*
X141024819Y-149099523D02*
X141024819Y-149289999D01*
X141024819Y-149289999D02*
X141072438Y-149385237D01*
X141072438Y-149385237D02*
X141120057Y-149432856D01*
X141120057Y-149432856D02*
X141262914Y-149528094D01*
X141262914Y-149528094D02*
X141453390Y-149575713D01*
X141453390Y-149575713D02*
X141834342Y-149575713D01*
X141834342Y-149575713D02*
X141929580Y-149528094D01*
X141929580Y-149528094D02*
X141977200Y-149480475D01*
X141977200Y-149480475D02*
X142024819Y-149385237D01*
X142024819Y-149385237D02*
X142024819Y-149194761D01*
X142024819Y-149194761D02*
X141977200Y-149099523D01*
X141977200Y-149099523D02*
X141929580Y-149051904D01*
X141929580Y-149051904D02*
X141834342Y-149004285D01*
X141834342Y-149004285D02*
X141596247Y-149004285D01*
X141596247Y-149004285D02*
X141501009Y-149051904D01*
X141501009Y-149051904D02*
X141453390Y-149099523D01*
X141453390Y-149099523D02*
X141405771Y-149194761D01*
X141405771Y-149194761D02*
X141405771Y-149385237D01*
X141405771Y-149385237D02*
X141453390Y-149480475D01*
X141453390Y-149480475D02*
X141501009Y-149528094D01*
X141501009Y-149528094D02*
X141596247Y-149575713D01*
X145724819Y-149756666D02*
X145248628Y-150089999D01*
X145724819Y-150328094D02*
X144724819Y-150328094D01*
X144724819Y-150328094D02*
X144724819Y-149947142D01*
X144724819Y-149947142D02*
X144772438Y-149851904D01*
X144772438Y-149851904D02*
X144820057Y-149804285D01*
X144820057Y-149804285D02*
X144915295Y-149756666D01*
X144915295Y-149756666D02*
X145058152Y-149756666D01*
X145058152Y-149756666D02*
X145153390Y-149804285D01*
X145153390Y-149804285D02*
X145201009Y-149851904D01*
X145201009Y-149851904D02*
X145248628Y-149947142D01*
X145248628Y-149947142D02*
X145248628Y-150328094D01*
X144724819Y-148851904D02*
X144724819Y-149328094D01*
X144724819Y-149328094D02*
X145201009Y-149375713D01*
X145201009Y-149375713D02*
X145153390Y-149328094D01*
X145153390Y-149328094D02*
X145105771Y-149232856D01*
X145105771Y-149232856D02*
X145105771Y-148994761D01*
X145105771Y-148994761D02*
X145153390Y-148899523D01*
X145153390Y-148899523D02*
X145201009Y-148851904D01*
X145201009Y-148851904D02*
X145296247Y-148804285D01*
X145296247Y-148804285D02*
X145534342Y-148804285D01*
X145534342Y-148804285D02*
X145629580Y-148851904D01*
X145629580Y-148851904D02*
X145677200Y-148899523D01*
X145677200Y-148899523D02*
X145724819Y-148994761D01*
X145724819Y-148994761D02*
X145724819Y-149232856D01*
X145724819Y-149232856D02*
X145677200Y-149328094D01*
X145677200Y-149328094D02*
X145629580Y-149375713D01*
X149524819Y-149756666D02*
X149048628Y-150089999D01*
X149524819Y-150328094D02*
X148524819Y-150328094D01*
X148524819Y-150328094D02*
X148524819Y-149947142D01*
X148524819Y-149947142D02*
X148572438Y-149851904D01*
X148572438Y-149851904D02*
X148620057Y-149804285D01*
X148620057Y-149804285D02*
X148715295Y-149756666D01*
X148715295Y-149756666D02*
X148858152Y-149756666D01*
X148858152Y-149756666D02*
X148953390Y-149804285D01*
X148953390Y-149804285D02*
X149001009Y-149851904D01*
X149001009Y-149851904D02*
X149048628Y-149947142D01*
X149048628Y-149947142D02*
X149048628Y-150328094D01*
X148858152Y-148899523D02*
X149524819Y-148899523D01*
X148477200Y-149137618D02*
X149191485Y-149375713D01*
X149191485Y-149375713D02*
X149191485Y-148756666D01*
X174623333Y-155584819D02*
X174290000Y-155108628D01*
X174051905Y-155584819D02*
X174051905Y-154584819D01*
X174051905Y-154584819D02*
X174432857Y-154584819D01*
X174432857Y-154584819D02*
X174528095Y-154632438D01*
X174528095Y-154632438D02*
X174575714Y-154680057D01*
X174575714Y-154680057D02*
X174623333Y-154775295D01*
X174623333Y-154775295D02*
X174623333Y-154918152D01*
X174623333Y-154918152D02*
X174575714Y-155013390D01*
X174575714Y-155013390D02*
X174528095Y-155061009D01*
X174528095Y-155061009D02*
X174432857Y-155108628D01*
X174432857Y-155108628D02*
X174051905Y-155108628D01*
X174956667Y-154584819D02*
X175575714Y-154584819D01*
X175575714Y-154584819D02*
X175242381Y-154965771D01*
X175242381Y-154965771D02*
X175385238Y-154965771D01*
X175385238Y-154965771D02*
X175480476Y-155013390D01*
X175480476Y-155013390D02*
X175528095Y-155061009D01*
X175528095Y-155061009D02*
X175575714Y-155156247D01*
X175575714Y-155156247D02*
X175575714Y-155394342D01*
X175575714Y-155394342D02*
X175528095Y-155489580D01*
X175528095Y-155489580D02*
X175480476Y-155537200D01*
X175480476Y-155537200D02*
X175385238Y-155584819D01*
X175385238Y-155584819D02*
X175099524Y-155584819D01*
X175099524Y-155584819D02*
X175004286Y-155537200D01*
X175004286Y-155537200D02*
X174956667Y-155489580D01*
X232754819Y-152966666D02*
X232278628Y-153299999D01*
X232754819Y-153538094D02*
X231754819Y-153538094D01*
X231754819Y-153538094D02*
X231754819Y-153157142D01*
X231754819Y-153157142D02*
X231802438Y-153061904D01*
X231802438Y-153061904D02*
X231850057Y-153014285D01*
X231850057Y-153014285D02*
X231945295Y-152966666D01*
X231945295Y-152966666D02*
X232088152Y-152966666D01*
X232088152Y-152966666D02*
X232183390Y-153014285D01*
X232183390Y-153014285D02*
X232231009Y-153061904D01*
X232231009Y-153061904D02*
X232278628Y-153157142D01*
X232278628Y-153157142D02*
X232278628Y-153538094D01*
X231850057Y-152585713D02*
X231802438Y-152538094D01*
X231802438Y-152538094D02*
X231754819Y-152442856D01*
X231754819Y-152442856D02*
X231754819Y-152204761D01*
X231754819Y-152204761D02*
X231802438Y-152109523D01*
X231802438Y-152109523D02*
X231850057Y-152061904D01*
X231850057Y-152061904D02*
X231945295Y-152014285D01*
X231945295Y-152014285D02*
X232040533Y-152014285D01*
X232040533Y-152014285D02*
X232183390Y-152061904D01*
X232183390Y-152061904D02*
X232754819Y-152633332D01*
X232754819Y-152633332D02*
X232754819Y-152014285D01*
X232754819Y-150566666D02*
X232278628Y-150899999D01*
X232754819Y-151138094D02*
X231754819Y-151138094D01*
X231754819Y-151138094D02*
X231754819Y-150757142D01*
X231754819Y-150757142D02*
X231802438Y-150661904D01*
X231802438Y-150661904D02*
X231850057Y-150614285D01*
X231850057Y-150614285D02*
X231945295Y-150566666D01*
X231945295Y-150566666D02*
X232088152Y-150566666D01*
X232088152Y-150566666D02*
X232183390Y-150614285D01*
X232183390Y-150614285D02*
X232231009Y-150661904D01*
X232231009Y-150661904D02*
X232278628Y-150757142D01*
X232278628Y-150757142D02*
X232278628Y-151138094D01*
X232754819Y-149614285D02*
X232754819Y-150185713D01*
X232754819Y-149899999D02*
X231754819Y-149899999D01*
X231754819Y-149899999D02*
X231897676Y-149995237D01*
X231897676Y-149995237D02*
X231992914Y-150090475D01*
X231992914Y-150090475D02*
X232040533Y-150185713D01*
X40042261Y-151900057D02*
X39947023Y-151852438D01*
X39947023Y-151852438D02*
X39851785Y-151757200D01*
X39851785Y-151757200D02*
X39708928Y-151614342D01*
X39708928Y-151614342D02*
X39613690Y-151566723D01*
X39613690Y-151566723D02*
X39518452Y-151566723D01*
X39566071Y-151804819D02*
X39470833Y-151757200D01*
X39470833Y-151757200D02*
X39375595Y-151661961D01*
X39375595Y-151661961D02*
X39327976Y-151471485D01*
X39327976Y-151471485D02*
X39327976Y-151138152D01*
X39327976Y-151138152D02*
X39375595Y-150947676D01*
X39375595Y-150947676D02*
X39470833Y-150852438D01*
X39470833Y-150852438D02*
X39566071Y-150804819D01*
X39566071Y-150804819D02*
X39756547Y-150804819D01*
X39756547Y-150804819D02*
X39851785Y-150852438D01*
X39851785Y-150852438D02*
X39947023Y-150947676D01*
X39947023Y-150947676D02*
X39994642Y-151138152D01*
X39994642Y-151138152D02*
X39994642Y-151471485D01*
X39994642Y-151471485D02*
X39947023Y-151661961D01*
X39947023Y-151661961D02*
X39851785Y-151757200D01*
X39851785Y-151757200D02*
X39756547Y-151804819D01*
X39756547Y-151804819D02*
X39566071Y-151804819D01*
X40947023Y-151804819D02*
X40375595Y-151804819D01*
X40661309Y-151804819D02*
X40661309Y-150804819D01*
X40661309Y-150804819D02*
X40566071Y-150947676D01*
X40566071Y-150947676D02*
X40470833Y-151042914D01*
X40470833Y-151042914D02*
X40375595Y-151090533D01*
X123804819Y-153800594D02*
X122804819Y-153800594D01*
X122804819Y-153800594D02*
X122804819Y-153562499D01*
X122804819Y-153562499D02*
X122852438Y-153419642D01*
X122852438Y-153419642D02*
X122947676Y-153324404D01*
X122947676Y-153324404D02*
X123042914Y-153276785D01*
X123042914Y-153276785D02*
X123233390Y-153229166D01*
X123233390Y-153229166D02*
X123376247Y-153229166D01*
X123376247Y-153229166D02*
X123566723Y-153276785D01*
X123566723Y-153276785D02*
X123661961Y-153324404D01*
X123661961Y-153324404D02*
X123757200Y-153419642D01*
X123757200Y-153419642D02*
X123804819Y-153562499D01*
X123804819Y-153562499D02*
X123804819Y-153800594D01*
X123233390Y-152657737D02*
X123185771Y-152752975D01*
X123185771Y-152752975D02*
X123138152Y-152800594D01*
X123138152Y-152800594D02*
X123042914Y-152848213D01*
X123042914Y-152848213D02*
X122995295Y-152848213D01*
X122995295Y-152848213D02*
X122900057Y-152800594D01*
X122900057Y-152800594D02*
X122852438Y-152752975D01*
X122852438Y-152752975D02*
X122804819Y-152657737D01*
X122804819Y-152657737D02*
X122804819Y-152467261D01*
X122804819Y-152467261D02*
X122852438Y-152372023D01*
X122852438Y-152372023D02*
X122900057Y-152324404D01*
X122900057Y-152324404D02*
X122995295Y-152276785D01*
X122995295Y-152276785D02*
X123042914Y-152276785D01*
X123042914Y-152276785D02*
X123138152Y-152324404D01*
X123138152Y-152324404D02*
X123185771Y-152372023D01*
X123185771Y-152372023D02*
X123233390Y-152467261D01*
X123233390Y-152467261D02*
X123233390Y-152657737D01*
X123233390Y-152657737D02*
X123281009Y-152752975D01*
X123281009Y-152752975D02*
X123328628Y-152800594D01*
X123328628Y-152800594D02*
X123423866Y-152848213D01*
X123423866Y-152848213D02*
X123614342Y-152848213D01*
X123614342Y-152848213D02*
X123709580Y-152800594D01*
X123709580Y-152800594D02*
X123757200Y-152752975D01*
X123757200Y-152752975D02*
X123804819Y-152657737D01*
X123804819Y-152657737D02*
X123804819Y-152467261D01*
X123804819Y-152467261D02*
X123757200Y-152372023D01*
X123757200Y-152372023D02*
X123709580Y-152324404D01*
X123709580Y-152324404D02*
X123614342Y-152276785D01*
X123614342Y-152276785D02*
X123423866Y-152276785D01*
X123423866Y-152276785D02*
X123328628Y-152324404D01*
X123328628Y-152324404D02*
X123281009Y-152372023D01*
X123281009Y-152372023D02*
X123233390Y-152467261D01*
X127804819Y-153838094D02*
X126804819Y-153838094D01*
X126804819Y-153838094D02*
X126804819Y-153599999D01*
X126804819Y-153599999D02*
X126852438Y-153457142D01*
X126852438Y-153457142D02*
X126947676Y-153361904D01*
X126947676Y-153361904D02*
X127042914Y-153314285D01*
X127042914Y-153314285D02*
X127233390Y-153266666D01*
X127233390Y-153266666D02*
X127376247Y-153266666D01*
X127376247Y-153266666D02*
X127566723Y-153314285D01*
X127566723Y-153314285D02*
X127661961Y-153361904D01*
X127661961Y-153361904D02*
X127757200Y-153457142D01*
X127757200Y-153457142D02*
X127804819Y-153599999D01*
X127804819Y-153599999D02*
X127804819Y-153838094D01*
X126804819Y-152933332D02*
X126804819Y-152266666D01*
X126804819Y-152266666D02*
X127804819Y-152695237D01*
X131604819Y-153838094D02*
X130604819Y-153838094D01*
X130604819Y-153838094D02*
X130604819Y-153599999D01*
X130604819Y-153599999D02*
X130652438Y-153457142D01*
X130652438Y-153457142D02*
X130747676Y-153361904D01*
X130747676Y-153361904D02*
X130842914Y-153314285D01*
X130842914Y-153314285D02*
X131033390Y-153266666D01*
X131033390Y-153266666D02*
X131176247Y-153266666D01*
X131176247Y-153266666D02*
X131366723Y-153314285D01*
X131366723Y-153314285D02*
X131461961Y-153361904D01*
X131461961Y-153361904D02*
X131557200Y-153457142D01*
X131557200Y-153457142D02*
X131604819Y-153599999D01*
X131604819Y-153599999D02*
X131604819Y-153838094D01*
X130604819Y-152409523D02*
X130604819Y-152599999D01*
X130604819Y-152599999D02*
X130652438Y-152695237D01*
X130652438Y-152695237D02*
X130700057Y-152742856D01*
X130700057Y-152742856D02*
X130842914Y-152838094D01*
X130842914Y-152838094D02*
X131033390Y-152885713D01*
X131033390Y-152885713D02*
X131414342Y-152885713D01*
X131414342Y-152885713D02*
X131509580Y-152838094D01*
X131509580Y-152838094D02*
X131557200Y-152790475D01*
X131557200Y-152790475D02*
X131604819Y-152695237D01*
X131604819Y-152695237D02*
X131604819Y-152504761D01*
X131604819Y-152504761D02*
X131557200Y-152409523D01*
X131557200Y-152409523D02*
X131509580Y-152361904D01*
X131509580Y-152361904D02*
X131414342Y-152314285D01*
X131414342Y-152314285D02*
X131176247Y-152314285D01*
X131176247Y-152314285D02*
X131081009Y-152361904D01*
X131081009Y-152361904D02*
X131033390Y-152409523D01*
X131033390Y-152409523D02*
X130985771Y-152504761D01*
X130985771Y-152504761D02*
X130985771Y-152695237D01*
X130985771Y-152695237D02*
X131033390Y-152790475D01*
X131033390Y-152790475D02*
X131081009Y-152838094D01*
X131081009Y-152838094D02*
X131176247Y-152885713D01*
X135504819Y-153800594D02*
X134504819Y-153800594D01*
X134504819Y-153800594D02*
X134504819Y-153562499D01*
X134504819Y-153562499D02*
X134552438Y-153419642D01*
X134552438Y-153419642D02*
X134647676Y-153324404D01*
X134647676Y-153324404D02*
X134742914Y-153276785D01*
X134742914Y-153276785D02*
X134933390Y-153229166D01*
X134933390Y-153229166D02*
X135076247Y-153229166D01*
X135076247Y-153229166D02*
X135266723Y-153276785D01*
X135266723Y-153276785D02*
X135361961Y-153324404D01*
X135361961Y-153324404D02*
X135457200Y-153419642D01*
X135457200Y-153419642D02*
X135504819Y-153562499D01*
X135504819Y-153562499D02*
X135504819Y-153800594D01*
X134504819Y-152324404D02*
X134504819Y-152800594D01*
X134504819Y-152800594D02*
X134981009Y-152848213D01*
X134981009Y-152848213D02*
X134933390Y-152800594D01*
X134933390Y-152800594D02*
X134885771Y-152705356D01*
X134885771Y-152705356D02*
X134885771Y-152467261D01*
X134885771Y-152467261D02*
X134933390Y-152372023D01*
X134933390Y-152372023D02*
X134981009Y-152324404D01*
X134981009Y-152324404D02*
X135076247Y-152276785D01*
X135076247Y-152276785D02*
X135314342Y-152276785D01*
X135314342Y-152276785D02*
X135409580Y-152324404D01*
X135409580Y-152324404D02*
X135457200Y-152372023D01*
X135457200Y-152372023D02*
X135504819Y-152467261D01*
X135504819Y-152467261D02*
X135504819Y-152705356D01*
X135504819Y-152705356D02*
X135457200Y-152800594D01*
X135457200Y-152800594D02*
X135409580Y-152848213D01*
X139204819Y-153838094D02*
X138204819Y-153838094D01*
X138204819Y-153838094D02*
X138204819Y-153599999D01*
X138204819Y-153599999D02*
X138252438Y-153457142D01*
X138252438Y-153457142D02*
X138347676Y-153361904D01*
X138347676Y-153361904D02*
X138442914Y-153314285D01*
X138442914Y-153314285D02*
X138633390Y-153266666D01*
X138633390Y-153266666D02*
X138776247Y-153266666D01*
X138776247Y-153266666D02*
X138966723Y-153314285D01*
X138966723Y-153314285D02*
X139061961Y-153361904D01*
X139061961Y-153361904D02*
X139157200Y-153457142D01*
X139157200Y-153457142D02*
X139204819Y-153599999D01*
X139204819Y-153599999D02*
X139204819Y-153838094D01*
X138538152Y-152409523D02*
X139204819Y-152409523D01*
X138157200Y-152647618D02*
X138871485Y-152885713D01*
X138871485Y-152885713D02*
X138871485Y-152266666D01*
X142904819Y-153838094D02*
X141904819Y-153838094D01*
X141904819Y-153838094D02*
X141904819Y-153599999D01*
X141904819Y-153599999D02*
X141952438Y-153457142D01*
X141952438Y-153457142D02*
X142047676Y-153361904D01*
X142047676Y-153361904D02*
X142142914Y-153314285D01*
X142142914Y-153314285D02*
X142333390Y-153266666D01*
X142333390Y-153266666D02*
X142476247Y-153266666D01*
X142476247Y-153266666D02*
X142666723Y-153314285D01*
X142666723Y-153314285D02*
X142761961Y-153361904D01*
X142761961Y-153361904D02*
X142857200Y-153457142D01*
X142857200Y-153457142D02*
X142904819Y-153599999D01*
X142904819Y-153599999D02*
X142904819Y-153838094D01*
X141904819Y-152933332D02*
X141904819Y-152314285D01*
X141904819Y-152314285D02*
X142285771Y-152647618D01*
X142285771Y-152647618D02*
X142285771Y-152504761D01*
X142285771Y-152504761D02*
X142333390Y-152409523D01*
X142333390Y-152409523D02*
X142381009Y-152361904D01*
X142381009Y-152361904D02*
X142476247Y-152314285D01*
X142476247Y-152314285D02*
X142714342Y-152314285D01*
X142714342Y-152314285D02*
X142809580Y-152361904D01*
X142809580Y-152361904D02*
X142857200Y-152409523D01*
X142857200Y-152409523D02*
X142904819Y-152504761D01*
X142904819Y-152504761D02*
X142904819Y-152790475D01*
X142904819Y-152790475D02*
X142857200Y-152885713D01*
X142857200Y-152885713D02*
X142809580Y-152933332D01*
X146704819Y-153875594D02*
X145704819Y-153875594D01*
X145704819Y-153875594D02*
X145704819Y-153637499D01*
X145704819Y-153637499D02*
X145752438Y-153494642D01*
X145752438Y-153494642D02*
X145847676Y-153399404D01*
X145847676Y-153399404D02*
X145942914Y-153351785D01*
X145942914Y-153351785D02*
X146133390Y-153304166D01*
X146133390Y-153304166D02*
X146276247Y-153304166D01*
X146276247Y-153304166D02*
X146466723Y-153351785D01*
X146466723Y-153351785D02*
X146561961Y-153399404D01*
X146561961Y-153399404D02*
X146657200Y-153494642D01*
X146657200Y-153494642D02*
X146704819Y-153637499D01*
X146704819Y-153637499D02*
X146704819Y-153875594D01*
X145800057Y-152923213D02*
X145752438Y-152875594D01*
X145752438Y-152875594D02*
X145704819Y-152780356D01*
X145704819Y-152780356D02*
X145704819Y-152542261D01*
X145704819Y-152542261D02*
X145752438Y-152447023D01*
X145752438Y-152447023D02*
X145800057Y-152399404D01*
X145800057Y-152399404D02*
X145895295Y-152351785D01*
X145895295Y-152351785D02*
X145990533Y-152351785D01*
X145990533Y-152351785D02*
X146133390Y-152399404D01*
X146133390Y-152399404D02*
X146704819Y-152970832D01*
X146704819Y-152970832D02*
X146704819Y-152351785D01*
X170561905Y-155204819D02*
X170561905Y-154204819D01*
X170561905Y-154204819D02*
X170800000Y-154204819D01*
X170800000Y-154204819D02*
X170942857Y-154252438D01*
X170942857Y-154252438D02*
X171038095Y-154347676D01*
X171038095Y-154347676D02*
X171085714Y-154442914D01*
X171085714Y-154442914D02*
X171133333Y-154633390D01*
X171133333Y-154633390D02*
X171133333Y-154776247D01*
X171133333Y-154776247D02*
X171085714Y-154966723D01*
X171085714Y-154966723D02*
X171038095Y-155061961D01*
X171038095Y-155061961D02*
X170942857Y-155157200D01*
X170942857Y-155157200D02*
X170800000Y-155204819D01*
X170800000Y-155204819D02*
X170561905Y-155204819D01*
X172085714Y-155204819D02*
X171514286Y-155204819D01*
X171800000Y-155204819D02*
X171800000Y-154204819D01*
X171800000Y-154204819D02*
X171704762Y-154347676D01*
X171704762Y-154347676D02*
X171609524Y-154442914D01*
X171609524Y-154442914D02*
X171514286Y-154490533D01*
X194009580Y-149166666D02*
X194057200Y-149214285D01*
X194057200Y-149214285D02*
X194104819Y-149357142D01*
X194104819Y-149357142D02*
X194104819Y-149452380D01*
X194104819Y-149452380D02*
X194057200Y-149595237D01*
X194057200Y-149595237D02*
X193961961Y-149690475D01*
X193961961Y-149690475D02*
X193866723Y-149738094D01*
X193866723Y-149738094D02*
X193676247Y-149785713D01*
X193676247Y-149785713D02*
X193533390Y-149785713D01*
X193533390Y-149785713D02*
X193342914Y-149738094D01*
X193342914Y-149738094D02*
X193247676Y-149690475D01*
X193247676Y-149690475D02*
X193152438Y-149595237D01*
X193152438Y-149595237D02*
X193104819Y-149452380D01*
X193104819Y-149452380D02*
X193104819Y-149357142D01*
X193104819Y-149357142D02*
X193152438Y-149214285D01*
X193152438Y-149214285D02*
X193200057Y-149166666D01*
X193104819Y-148261904D02*
X193104819Y-148738094D01*
X193104819Y-148738094D02*
X193581009Y-148785713D01*
X193581009Y-148785713D02*
X193533390Y-148738094D01*
X193533390Y-148738094D02*
X193485771Y-148642856D01*
X193485771Y-148642856D02*
X193485771Y-148404761D01*
X193485771Y-148404761D02*
X193533390Y-148309523D01*
X193533390Y-148309523D02*
X193581009Y-148261904D01*
X193581009Y-148261904D02*
X193676247Y-148214285D01*
X193676247Y-148214285D02*
X193914342Y-148214285D01*
X193914342Y-148214285D02*
X194009580Y-148261904D01*
X194009580Y-148261904D02*
X194057200Y-148309523D01*
X194057200Y-148309523D02*
X194104819Y-148404761D01*
X194104819Y-148404761D02*
X194104819Y-148642856D01*
X194104819Y-148642856D02*
X194057200Y-148738094D01*
X194057200Y-148738094D02*
X194009580Y-148785713D01*
X201009580Y-149166666D02*
X201057200Y-149214285D01*
X201057200Y-149214285D02*
X201104819Y-149357142D01*
X201104819Y-149357142D02*
X201104819Y-149452380D01*
X201104819Y-149452380D02*
X201057200Y-149595237D01*
X201057200Y-149595237D02*
X200961961Y-149690475D01*
X200961961Y-149690475D02*
X200866723Y-149738094D01*
X200866723Y-149738094D02*
X200676247Y-149785713D01*
X200676247Y-149785713D02*
X200533390Y-149785713D01*
X200533390Y-149785713D02*
X200342914Y-149738094D01*
X200342914Y-149738094D02*
X200247676Y-149690475D01*
X200247676Y-149690475D02*
X200152438Y-149595237D01*
X200152438Y-149595237D02*
X200104819Y-149452380D01*
X200104819Y-149452380D02*
X200104819Y-149357142D01*
X200104819Y-149357142D02*
X200152438Y-149214285D01*
X200152438Y-149214285D02*
X200200057Y-149166666D01*
X200438152Y-148309523D02*
X201104819Y-148309523D01*
X200057200Y-148547618D02*
X200771485Y-148785713D01*
X200771485Y-148785713D02*
X200771485Y-148166666D01*
X208009580Y-149166666D02*
X208057200Y-149214285D01*
X208057200Y-149214285D02*
X208104819Y-149357142D01*
X208104819Y-149357142D02*
X208104819Y-149452380D01*
X208104819Y-149452380D02*
X208057200Y-149595237D01*
X208057200Y-149595237D02*
X207961961Y-149690475D01*
X207961961Y-149690475D02*
X207866723Y-149738094D01*
X207866723Y-149738094D02*
X207676247Y-149785713D01*
X207676247Y-149785713D02*
X207533390Y-149785713D01*
X207533390Y-149785713D02*
X207342914Y-149738094D01*
X207342914Y-149738094D02*
X207247676Y-149690475D01*
X207247676Y-149690475D02*
X207152438Y-149595237D01*
X207152438Y-149595237D02*
X207104819Y-149452380D01*
X207104819Y-149452380D02*
X207104819Y-149357142D01*
X207104819Y-149357142D02*
X207152438Y-149214285D01*
X207152438Y-149214285D02*
X207200057Y-149166666D01*
X207104819Y-148833332D02*
X207104819Y-148214285D01*
X207104819Y-148214285D02*
X207485771Y-148547618D01*
X207485771Y-148547618D02*
X207485771Y-148404761D01*
X207485771Y-148404761D02*
X207533390Y-148309523D01*
X207533390Y-148309523D02*
X207581009Y-148261904D01*
X207581009Y-148261904D02*
X207676247Y-148214285D01*
X207676247Y-148214285D02*
X207914342Y-148214285D01*
X207914342Y-148214285D02*
X208009580Y-148261904D01*
X208009580Y-148261904D02*
X208057200Y-148309523D01*
X208057200Y-148309523D02*
X208104819Y-148404761D01*
X208104819Y-148404761D02*
X208104819Y-148690475D01*
X208104819Y-148690475D02*
X208057200Y-148785713D01*
X208057200Y-148785713D02*
X208009580Y-148833332D01*
X184459580Y-160366666D02*
X184507200Y-160414285D01*
X184507200Y-160414285D02*
X184554819Y-160557142D01*
X184554819Y-160557142D02*
X184554819Y-160652380D01*
X184554819Y-160652380D02*
X184507200Y-160795237D01*
X184507200Y-160795237D02*
X184411961Y-160890475D01*
X184411961Y-160890475D02*
X184316723Y-160938094D01*
X184316723Y-160938094D02*
X184126247Y-160985713D01*
X184126247Y-160985713D02*
X183983390Y-160985713D01*
X183983390Y-160985713D02*
X183792914Y-160938094D01*
X183792914Y-160938094D02*
X183697676Y-160890475D01*
X183697676Y-160890475D02*
X183602438Y-160795237D01*
X183602438Y-160795237D02*
X183554819Y-160652380D01*
X183554819Y-160652380D02*
X183554819Y-160557142D01*
X183554819Y-160557142D02*
X183602438Y-160414285D01*
X183602438Y-160414285D02*
X183650057Y-160366666D01*
X183650057Y-159985713D02*
X183602438Y-159938094D01*
X183602438Y-159938094D02*
X183554819Y-159842856D01*
X183554819Y-159842856D02*
X183554819Y-159604761D01*
X183554819Y-159604761D02*
X183602438Y-159509523D01*
X183602438Y-159509523D02*
X183650057Y-159461904D01*
X183650057Y-159461904D02*
X183745295Y-159414285D01*
X183745295Y-159414285D02*
X183840533Y-159414285D01*
X183840533Y-159414285D02*
X183983390Y-159461904D01*
X183983390Y-159461904D02*
X184554819Y-160033332D01*
X184554819Y-160033332D02*
X184554819Y-159414285D01*
X86709580Y-152166666D02*
X86757200Y-152214285D01*
X86757200Y-152214285D02*
X86804819Y-152357142D01*
X86804819Y-152357142D02*
X86804819Y-152452380D01*
X86804819Y-152452380D02*
X86757200Y-152595237D01*
X86757200Y-152595237D02*
X86661961Y-152690475D01*
X86661961Y-152690475D02*
X86566723Y-152738094D01*
X86566723Y-152738094D02*
X86376247Y-152785713D01*
X86376247Y-152785713D02*
X86233390Y-152785713D01*
X86233390Y-152785713D02*
X86042914Y-152738094D01*
X86042914Y-152738094D02*
X85947676Y-152690475D01*
X85947676Y-152690475D02*
X85852438Y-152595237D01*
X85852438Y-152595237D02*
X85804819Y-152452380D01*
X85804819Y-152452380D02*
X85804819Y-152357142D01*
X85804819Y-152357142D02*
X85852438Y-152214285D01*
X85852438Y-152214285D02*
X85900057Y-152166666D01*
X86804819Y-151214285D02*
X86804819Y-151785713D01*
X86804819Y-151499999D02*
X85804819Y-151499999D01*
X85804819Y-151499999D02*
X85947676Y-151595237D01*
X85947676Y-151595237D02*
X86042914Y-151690475D01*
X86042914Y-151690475D02*
X86090533Y-151785713D01*
D12*
%TO.C,Y1*%
X258640000Y-155560000D02*
X262960000Y-155560000D01*
X262960000Y-155560000D02*
X262960000Y-148840000D01*
%TO.C,U3*%
X180525000Y-146765000D02*
X178575000Y-146765000D01*
X180525000Y-146765000D02*
X182475000Y-146765000D01*
X180525000Y-156885000D02*
X178575000Y-156885000D01*
X180525000Y-156885000D02*
X182475000Y-156885000D01*
X177825000Y-146820000D02*
X177585000Y-146490000D01*
X178065000Y-146490000D01*
X177825000Y-146820000D01*
G36*
X177825000Y-146820000D02*
G01*
X177585000Y-146490000D01*
X178065000Y-146490000D01*
X177825000Y-146820000D01*
G37*
%TO.C,U2*%
X71390000Y-158610000D02*
X71665000Y-158610000D01*
X78610000Y-158610000D02*
X78335000Y-158610000D01*
X71390000Y-158335000D02*
X71390000Y-158610000D01*
X78610000Y-158335000D02*
X78610000Y-158610000D01*
X71390000Y-151665000D02*
X71390000Y-151390000D01*
X78610000Y-151665000D02*
X78610000Y-151390000D01*
X71390000Y-151390000D02*
X71665000Y-151390000D01*
X78610000Y-151390000D02*
X78335000Y-151390000D01*
X71665000Y-159200000D02*
X71195000Y-159540000D01*
X71195000Y-158860000D01*
X71665000Y-159200000D01*
G36*
X71665000Y-159200000D02*
G01*
X71195000Y-159540000D01*
X71195000Y-158860000D01*
X71665000Y-159200000D01*
G37*
%TO.C,U1*%
X240000000Y-149440000D02*
X238050000Y-149440000D01*
X240000000Y-149440000D02*
X241950000Y-149440000D01*
X240000000Y-154560000D02*
X238050000Y-154560000D01*
X240000000Y-154560000D02*
X241950000Y-154560000D01*
X237300000Y-149535000D02*
X237060000Y-149205000D01*
X237540000Y-149205000D01*
X237300000Y-149535000D01*
G36*
X237300000Y-149535000D02*
G01*
X237060000Y-149205000D01*
X237540000Y-149205000D01*
X237300000Y-149535000D01*
G37*
%TO.C,SW2*%
X101765000Y-155690000D02*
X102865000Y-155690000D01*
X101765000Y-157210000D02*
X101765000Y-157290000D01*
X105085000Y-155690000D02*
X106185000Y-155690000D01*
X106185000Y-157210000D02*
X106185000Y-157290000D01*
%TO.C,SW1*%
X109740000Y-149640000D02*
X110840000Y-149640000D01*
X109740000Y-151160000D02*
X109740000Y-151240000D01*
X113060000Y-149640000D02*
X114160000Y-149640000D01*
X114160000Y-151160000D02*
X114160000Y-151240000D01*
%TO.C,R10*%
X125380000Y-149356359D02*
X125380000Y-149663641D01*
X124620000Y-149356359D02*
X124620000Y-149663641D01*
%TO.C,R9*%
X129380000Y-149346359D02*
X129380000Y-149653641D01*
X128620000Y-149346359D02*
X128620000Y-149653641D01*
%TO.C,R8*%
X133180000Y-149436359D02*
X133180000Y-149743641D01*
X132420000Y-149436359D02*
X132420000Y-149743641D01*
%TO.C,R7*%
X137080000Y-149546359D02*
X137080000Y-149853641D01*
X136320000Y-149546359D02*
X136320000Y-149853641D01*
%TO.C,R6*%
X140780000Y-149636359D02*
X140780000Y-149943641D01*
X140020000Y-149636359D02*
X140020000Y-149943641D01*
%TO.C,R5*%
X144480000Y-149436359D02*
X144480000Y-149743641D01*
X143720000Y-149436359D02*
X143720000Y-149743641D01*
%TO.C,R4*%
X148280000Y-149436359D02*
X148280000Y-149743641D01*
X147520000Y-149436359D02*
X147520000Y-149743641D01*
%TO.C,R3*%
X174636359Y-155920000D02*
X174943641Y-155920000D01*
X174636359Y-156680000D02*
X174943641Y-156680000D01*
%TO.C,R2*%
X233880000Y-152656359D02*
X233880000Y-152963641D01*
X233120000Y-152656359D02*
X233120000Y-152963641D01*
%TO.C,R1*%
X233880000Y-150236359D02*
X233880000Y-150543641D01*
X233120000Y-150236359D02*
X233120000Y-150543641D01*
%TO.C,Q1*%
X40137500Y-150510000D02*
X40937500Y-150510000D01*
X40137500Y-150510000D02*
X39337500Y-150510000D01*
X40137500Y-147390000D02*
X40937500Y-147390000D01*
X40137500Y-147390000D02*
X39337500Y-147390000D01*
X41677500Y-150790000D02*
X41197500Y-150790000D01*
X41437500Y-150460000D01*
X41677500Y-150790000D01*
G36*
X41677500Y-150790000D02*
G01*
X41197500Y-150790000D01*
X41437500Y-150460000D01*
X41677500Y-150790000D01*
G37*
%TO.C,D8*%
X124040000Y-154747500D02*
X125960000Y-154747500D01*
X125960000Y-154747500D02*
X125960000Y-152062500D01*
X124040000Y-152062500D02*
X124040000Y-154747500D01*
%TO.C,D7*%
X128040000Y-154785000D02*
X129960000Y-154785000D01*
X129960000Y-154785000D02*
X129960000Y-152100000D01*
X128040000Y-152100000D02*
X128040000Y-154785000D01*
%TO.C,D6*%
X131840000Y-154785000D02*
X133760000Y-154785000D01*
X133760000Y-154785000D02*
X133760000Y-152100000D01*
X131840000Y-152100000D02*
X131840000Y-154785000D01*
%TO.C,D5*%
X135740000Y-154747500D02*
X137660000Y-154747500D01*
X137660000Y-154747500D02*
X137660000Y-152062500D01*
X135740000Y-152062500D02*
X135740000Y-154747500D01*
%TO.C,D4*%
X139440000Y-154785000D02*
X141360000Y-154785000D01*
X141360000Y-154785000D02*
X141360000Y-152100000D01*
X139440000Y-152100000D02*
X139440000Y-154785000D01*
%TO.C,D3*%
X143140000Y-154785000D02*
X145060000Y-154785000D01*
X145060000Y-154785000D02*
X145060000Y-152100000D01*
X143140000Y-152100000D02*
X143140000Y-154785000D01*
%TO.C,D2*%
X146940000Y-154822500D02*
X148860000Y-154822500D01*
X148860000Y-154822500D02*
X148860000Y-152137500D01*
X146940000Y-152137500D02*
X146940000Y-154822500D01*
%TO.C,D1*%
X169615000Y-155440000D02*
X169615000Y-157360000D01*
X169615000Y-157360000D02*
X172300000Y-157360000D01*
X172300000Y-155440000D02*
X169615000Y-155440000D01*
%TO.C,C5*%
X192710000Y-147838748D02*
X192710000Y-150161252D01*
X189290000Y-147838748D02*
X189290000Y-150161252D01*
%TO.C,C4*%
X199710000Y-147838748D02*
X199710000Y-150161252D01*
X196290000Y-147838748D02*
X196290000Y-150161252D01*
%TO.C,C3*%
X206710000Y-147838748D02*
X206710000Y-150161252D01*
X203290000Y-147838748D02*
X203290000Y-150161252D01*
%TO.C,C2*%
X179138748Y-158190000D02*
X181461252Y-158190000D01*
X179138748Y-161610000D02*
X181461252Y-161610000D01*
%TO.C,C1*%
X87290000Y-153161252D02*
X87290000Y-150838748D01*
X90710000Y-153161252D02*
X90710000Y-150838748D01*
%TD*%
M02*
