M48
; DRILL file {KiCad 9.0.4} date 2025-09-26T19:58:19-0400
; FORMAT={-:-/ absolute / metric / decimal}
; #@! TF.CreationDate,2025-09-26T19:58:19-04:00
; #@! TF.GenerationSoftware,Kicad,Pcbnew,9.0.4
; #@! TF.FileFunction,Plated,1,2,PTH
FMAT,2
METRIC
; #@! TA.AperFunction,Plated,PTH,ViaDrill
T1C0.300
; #@! TA.AperFunction,Plated,PTH,ViaDrill
T2C0.500
; #@! TA.AperFunction,Plated,PTH,ViaDrill
T3C1.000
%
G90
G05
T1
X23.5Y-159.1
X29.1Y-160.3
X29.9Y-150.7
X31.1Y-155.0
X42.6Y-154.6
X42.6Y-165.3
X42.6Y-167.7
X43.7Y-165.5
X43.7Y-167.0
X46.7Y-151.9
X192.087Y-149.292
X192.2Y-148.5
X196.6Y-154.6
X196.6Y-163.8
X207.4Y-148.0
X212.1Y-149.5
X212.8Y-154.5
X213.3Y-148.4
X214.016Y-148.758
X215.0Y-165.1
X215.7Y-147.9
X217.9Y-165.2
X251.2Y-147.3
X257.8Y-164.7
X261.5Y-165.6
X268.2Y-148.7
X288.7Y-152.5
X292.3Y-154.1
X293.7Y-157.4
X294.7Y-153.2
X295.0Y-157.1
X296.5Y-158.4
X301.1Y-163.2
X301.5Y-160.4
X301.7Y-161.4
X301.7Y-165.1
X301.9Y-157.2
X303.7Y-160.475
X303.9Y-159.7
X304.0Y-152.9
X304.0Y-155.8
X304.0Y-161.6
X304.0Y-162.4
X304.015Y-158.615
X304.2Y-163.2
X306.3Y-158.2
X306.3Y-159.1
X306.5Y-160.5
X306.6Y-163.2
X307.1Y-162.2
X308.0Y-161.6
X311.3Y-165.1
X311.8Y-156.6
X314.0Y-161.4
X314.525Y-154.892
X314.599Y-164.599
X315.201Y-165.201
X318.4Y-165.1
X318.634Y-161.944
X319.3Y-161.5
X319.8Y-160.7
X319.9Y-154.9
X319.9Y-154.9
X323.0Y-159.6
X323.7Y-161.8
X326.204Y-162.685
X326.204Y-163.535
X329.0Y-164.8
X329.4Y-152.9
X329.4Y-154.9
X330.1Y-156.9
X334.1Y-156.0
T2
X302.7Y-168.7
X311.2Y-155.6
T3
X216.5Y-154.5
X216.5Y-165.0
X254.0Y-149.551
X254.0Y-153.6
X305.3Y-164.6
X305.3Y-168.5
M30
