M48
; DRILL file {KiCad 9.0.4} date 2025-09-26T11:32:52-0400
; FORMAT={-:-/ absolute / metric / decimal}
; #@! TF.CreationDate,2025-09-26T11:32:52-04:00
; #@! TF.GenerationSoftware,Kicad,Pcbnew,9.0.4
; #@! TF.FileFunction,Plated,1,2,PTH
FMAT,2
METRIC
; #@! TA.AperFunction,Plated,PTH,ViaDrill
T1C0.300
%
G90
G05
T1
X68.7Y-157.6
X72.4Y-157.0
X72.7Y-153.6
X73.0Y-162.9
X73.1Y-161.0
X73.8Y-156.0
X74.6Y-149.4
X75.0Y-154.6
X75.4Y-152.9
X75.8Y-149.4
X76.2Y-156.2
X77.0Y-149.4
X77.3Y-153.5
X78.4Y-149.6
X79.2Y-146.2
X79.6Y-160.7
X80.0Y-144.5
X80.4Y-149.6
X80.5Y-156.0
X81.2Y-154.4
X81.4Y-156.2
X81.9Y-152.6
X82.2Y-154.8
X82.3Y-156.9
X82.9Y-160.8
X83.5Y-159.1
X84.0Y-154.8
X84.9Y-161.4
X85.2Y-147.998
X85.2Y-152.6
X85.6Y-153.5
X85.7Y-157.6
X86.626Y-156.674
X87.6Y-164.8
X88.7Y-156.1
X89.0Y-161.1
X91.9Y-148.381
X92.0Y-152.7
X92.1Y-155.1
X92.2Y-159.2
X92.9Y-152.9
X93.0Y-154.0
X94.076Y-156.324
X94.2Y-157.6
X95.8Y-157.6
X96.9Y-155.3
X97.0Y-154.3
X101.1Y-153.7
X107.1Y-151.9
X116.8Y-162.8
X116.9Y-164.6
X123.5Y-158.6
X124.2Y-159.0
X127.6Y-149.6
X131.1Y-150.2
X134.5Y-150.4
X139.1Y-150.9
X149.7Y-154.1
X165.9Y-159.6
X166.4Y-158.1
X167.4Y-155.6
X167.6Y-158.7
X169.788Y-158.001
X170.8Y-144.9
X170.8Y-152.4
X172.6Y-145.2
X172.6Y-151.2
X174.0Y-145.8
X174.1Y-149.8
X175.2Y-154.7
X175.6Y-148.6
X175.7Y-146.1
X188.0Y-148.1
X194.9Y-157.0
X196.7Y-156.1
X210.5Y-150.6
X232.5Y-151.5
X234.6Y-149.9
X234.7Y-152.2
X244.5Y-151.8
X244.6Y-155.3
X245.3Y-151.4
X246.1Y-149.2
X255.8Y-148.5
M30
