%TF.GenerationSoftware,KiCad,Pcbnew,9.0.4*%
%TF.CreationDate,2025-09-26T19:58:30-04:00*%
%TF.ProjectId,PCRuler_KiCad,50435275-6c65-4725-9f4b-694361642e6b,rev?*%
%TF.SameCoordinates,Original*%
%TF.FileFunction,Copper,L1,Top*%
%TF.FilePolarity,Positive*%
%FSLAX46Y46*%
G04 Gerber Fmt 4.6, Leading zero omitted, Abs format (unit mm)*
G04 Created by KiCad (PCBNEW 9.0.4) date 2025-09-26 19:58:30*
%MOMM*%
%LPD*%
G01*
G04 APERTURE LIST*
G04 Aperture macros list*
%AMRoundRect*
0 Rectangle with rounded corners*
0 $1 Rounding radius*
0 $2 $3 $4 $5 $6 $7 $8 $9 X,Y pos of 4 corners*
0 Add a 4 corners polygon primitive as box body*
4,1,4,$2,$3,$4,$5,$6,$7,$8,$9,$2,$3,0*
0 Add four circle primitives for the rounded corners*
1,1,$1+$1,$2,$3*
1,1,$1+$1,$4,$5*
1,1,$1+$1,$6,$7*
1,1,$1+$1,$8,$9*
0 Add four rect primitives between the rounded corners*
20,1,$1+$1,$2,$3,$4,$5,0*
20,1,$1+$1,$4,$5,$6,$7,0*
20,1,$1+$1,$6,$7,$8,$9,0*
20,1,$1+$1,$8,$9,$2,$3,0*%
%AMOutline5P*
0 Free polygon, 5 corners , with rotation*
0 The origin of the aperture is its center*
0 number of corners: always 5*
0 $1 to $10 corner X, Y*
0 $11 Rotation angle, in degrees counterclockwise*
0 create outline with 5 corners*
4,1,5,$1,$2,$3,$4,$5,$6,$7,$8,$9,$10,$1,$2,$11*%
%AMOutline6P*
0 Free polygon, 6 corners , with rotation*
0 The origin of the aperture is its center*
0 number of corners: always 6*
0 $1 to $12 corner X, Y*
0 $13 Rotation angle, in degrees counterclockwise*
0 create outline with 6 corners*
4,1,6,$1,$2,$3,$4,$5,$6,$7,$8,$9,$10,$11,$12,$1,$2,$13*%
%AMOutline7P*
0 Free polygon, 7 corners , with rotation*
0 The origin of the aperture is its center*
0 number of corners: always 7*
0 $1 to $14 corner X, Y*
0 $15 Rotation angle, in degrees counterclockwise*
0 create outline with 7 corners*
4,1,7,$1,$2,$3,$4,$5,$6,$7,$8,$9,$10,$11,$12,$13,$14,$1,$2,$15*%
%AMOutline8P*
0 Free polygon, 8 corners , with rotation*
0 The origin of the aperture is its center*
0 number of corners: always 8*
0 $1 to $16 corner X, Y*
0 $17 Rotation angle, in degrees counterclockwise*
0 create outline with 8 corners*
4,1,8,$1,$2,$3,$4,$5,$6,$7,$8,$9,$10,$11,$12,$13,$14,$15,$16,$1,$2,$17*%
G04 Aperture macros list end*
%TA.AperFunction,SMDPad,CuDef*%
%ADD10RoundRect,0.150000X0.425000X-0.150000X0.425000X0.150000X-0.425000X0.150000X-0.425000X-0.150000X0*%
%TD*%
%TA.AperFunction,SMDPad,CuDef*%
%ADD11RoundRect,0.075000X0.500000X-0.075000X0.500000X0.075000X-0.500000X0.075000X-0.500000X-0.075000X0*%
%TD*%
%TA.AperFunction,SMDPad,CuDef*%
%ADD12RoundRect,0.250000X0.750000X-0.840000X0.750000X0.840000X-0.750000X0.840000X-0.750000X-0.840000X0*%
%TD*%
%TA.AperFunction,SMDPad,CuDef*%
%ADD13R,1.500000X1.000000*%
%TD*%
%TA.AperFunction,SMDPad,CuDef*%
%ADD14R,1.000000X2.500000*%
%TD*%
%TA.AperFunction,SMDPad,CuDef*%
%ADD15RoundRect,0.135000X-0.135000X-0.185000X0.135000X-0.185000X0.135000X0.185000X-0.135000X0.185000X0*%
%TD*%
%TA.AperFunction,SMDPad,CuDef*%
%ADD16RoundRect,0.243750X0.243750X0.456250X-0.243750X0.456250X-0.243750X-0.456250X0.243750X-0.456250X0*%
%TD*%
%TA.AperFunction,SMDPad,CuDef*%
%ADD17R,1.600200X1.397000*%
%TD*%
%TA.AperFunction,SMDPad,CuDef*%
%ADD18RoundRect,0.375000X-0.375000X0.625000X-0.375000X-0.625000X0.375000X-0.625000X0.375000X0.625000X0*%
%TD*%
%TA.AperFunction,SMDPad,CuDef*%
%ADD19RoundRect,0.500000X-1.400000X0.500000X-1.400000X-0.500000X1.400000X-0.500000X1.400000X0.500000X0*%
%TD*%
%TA.AperFunction,SMDPad,CuDef*%
%ADD20RoundRect,0.135000X-0.185000X0.135000X-0.185000X-0.135000X0.185000X-0.135000X0.185000X0.135000X0*%
%TD*%
%TA.AperFunction,SMDPad,CuDef*%
%ADD21R,1.000000X1.900000*%
%TD*%
%TA.AperFunction,SMDPad,CuDef*%
%ADD22RoundRect,0.150000X-0.512500X-0.150000X0.512500X-0.150000X0.512500X0.150000X-0.512500X0.150000X0*%
%TD*%
%TA.AperFunction,SMDPad,CuDef*%
%ADD23R,3.175000X1.270000*%
%TD*%
%TA.AperFunction,SMDPad,CuDef*%
%ADD24R,0.800000X0.400000*%
%TD*%
%TA.AperFunction,SMDPad,CuDef*%
%ADD25R,0.400000X0.800000*%
%TD*%
%TA.AperFunction,HeatsinkPad*%
%ADD26Outline5P,-0.725000X0.130500X-0.130500X0.725000X0.725000X0.725000X0.725000X-0.725000X-0.725000X-0.725000X0.000000*%
%TD*%
%TA.AperFunction,HeatsinkPad*%
%ADD27R,1.450000X1.450000*%
%TD*%
%TA.AperFunction,SMDPad,CuDef*%
%ADD28R,0.700000X0.700000*%
%TD*%
%TA.AperFunction,ViaPad*%
%ADD29C,0.600000*%
%TD*%
%TA.AperFunction,ViaPad*%
%ADD30C,0.800000*%
%TD*%
%TA.AperFunction,ViaPad*%
%ADD31C,1.500000*%
%TD*%
%TA.AperFunction,Conductor*%
%ADD32C,1.000000*%
%TD*%
%TA.AperFunction,Conductor*%
%ADD33C,0.200000*%
%TD*%
%TA.AperFunction,Conductor*%
%ADD34C,0.450000*%
%TD*%
%TA.AperFunction,Conductor*%
%ADD35C,0.600000*%
%TD*%
G04 APERTURE END LIST*
D10*
%TO.P,J2,A1,GND*%
%TO.N,GND*%
X327520000Y-166310000D03*
%TO.P,J2,A4,VBUS*%
%TO.N,+5V*%
X327520000Y-165510000D03*
D11*
%TO.P,J2,A5,CC1*%
%TO.N,unconnected-(J2-CC1-PadA5)*%
X327520000Y-164360000D03*
%TO.P,J2,A6,D+*%
%TO.N,/USB_D+*%
X327520000Y-163360000D03*
%TO.P,J2,A7,D-*%
%TO.N,/USB_D-*%
X327520000Y-162860000D03*
%TO.P,J2,A8*%
%TO.N,N/C*%
X327520000Y-161860000D03*
D10*
%TO.P,J2,A9,VBUS*%
%TO.N,+5V*%
X327520000Y-160710000D03*
%TO.P,J2,A12,GND*%
%TO.N,GND*%
X327520000Y-159910000D03*
%TO.P,J2,B1,GND*%
X327520000Y-159910000D03*
%TO.P,J2,B4,VBUS*%
%TO.N,+5V*%
X327520000Y-160710000D03*
D11*
%TO.P,J2,B5,CC2*%
%TO.N,unconnected-(J2-CC2-PadB5)*%
X327520000Y-161360000D03*
%TO.P,J2,B6,D+*%
%TO.N,/USB_D+*%
X327520000Y-162360000D03*
%TO.P,J2,B7,D-*%
%TO.N,/USB_D-*%
X327520000Y-163860000D03*
%TO.P,J2,B8*%
%TO.N,N/C*%
X327520000Y-164860000D03*
D10*
%TO.P,J2,B9,VBUS*%
%TO.N,+5V*%
X327520000Y-165510000D03*
%TO.P,J2,B12,GND*%
%TO.N,GND*%
X327520000Y-166310000D03*
D12*
%TO.P,J2,S1,SHIELD*%
X328095000Y-168220000D03*
X332025000Y-168220000D03*
X328095000Y-158000000D03*
X332025000Y-158000000D03*
%TD*%
D13*
%TO.P,D2,4,DO*%
%TO.N,Net-(D2-DO)*%
X26450000Y-157400000D03*
%TO.P,D2,3,VDD*%
%TO.N,+3.3V*%
X26450000Y-160600000D03*
%TO.P,D2,2,DIN*%
%TO.N,/LED_DATA*%
X21550000Y-160600000D03*
%TO.P,D2,1,VSS*%
%TO.N,GND*%
X21550000Y-157400000D03*
%TD*%
D14*
%TO.P,SW6,2,B*%
%TO.N,+BATT*%
X237900000Y-153600000D03*
%TO.P,SW6,3,C*%
%TO.N,unconnected-(SW6-C-Pad3)*%
X235400000Y-148100000D03*
%TO.P,SW6,1,A*%
%TO.N,Net-(SW6-A)*%
X240400000Y-148100000D03*
%TD*%
D15*
%TO.P,R3,1*%
%TO.N,+3.3V*%
X196580000Y-149100000D03*
%TO.P,R3,2*%
%TO.N,/BOOT*%
X197600000Y-149100000D03*
%TD*%
D13*
%TO.P,D19,1,VSS*%
%TO.N,GND*%
X191550000Y-157400000D03*
%TO.P,D19,2,DIN*%
%TO.N,Net-(D18-DO)*%
X191550000Y-160600000D03*
%TO.P,D19,3,VDD*%
%TO.N,+3.3V*%
X196450000Y-160600000D03*
%TO.P,D19,4,DO*%
%TO.N,Net-(D19-DO)*%
X196450000Y-157400000D03*
%TD*%
%TO.P,D22,1,VSS*%
%TO.N,GND*%
X221550000Y-157400000D03*
%TO.P,D22,2,DIN*%
%TO.N,Net-(D21-DO)*%
X221550000Y-160600000D03*
%TO.P,D22,3,VDD*%
%TO.N,+3.3V*%
X226450000Y-160600000D03*
%TO.P,D22,4,DO*%
%TO.N,Net-(D22-DO)*%
X226450000Y-157400000D03*
%TD*%
D16*
%TO.P,D1,1,K*%
%TO.N,/charger_status*%
X333800000Y-154200000D03*
%TO.P,D1,2,A*%
%TO.N,Net-(D1-A)*%
X331925000Y-154200000D03*
%TD*%
D17*
%TO.P,SW2,1,1*%
%TO.N,+3.3V*%
X42900000Y-148249999D03*
%TO.P,SW2,2,2*%
X50900000Y-148249999D03*
%TO.P,SW2,3,3*%
%TO.N,/BTN_1*%
X42900000Y-152750001D03*
%TO.P,SW2,4,4*%
X50900000Y-152750001D03*
%TD*%
D13*
%TO.P,D20,1,VSS*%
%TO.N,GND*%
X201550000Y-157400000D03*
%TO.P,D20,2,DIN*%
%TO.N,Net-(D19-DO)*%
X201550000Y-160600000D03*
%TO.P,D20,3,VDD*%
%TO.N,+3.3V*%
X206450000Y-160600000D03*
%TO.P,D20,4,DO*%
%TO.N,Net-(D20-DO)*%
X206450000Y-157400000D03*
%TD*%
D18*
%TO.P,U3,1,IN*%
%TO.N,Net-(SW6-A)*%
X227000000Y-147700000D03*
%TO.P,U3,2,GND*%
%TO.N,GND*%
X224700000Y-147700000D03*
D19*
X224700000Y-154000000D03*
D18*
%TO.P,U3,3,OUT*%
%TO.N,+3.3V*%
X222400000Y-147700000D03*
%TD*%
D13*
%TO.P,D18,1,VSS*%
%TO.N,GND*%
X181550000Y-157400000D03*
%TO.P,D18,2,DIN*%
%TO.N,Net-(D17-DO)*%
X181550000Y-160600000D03*
%TO.P,D18,3,VDD*%
%TO.N,+3.3V*%
X186450000Y-160600000D03*
%TO.P,D18,4,DO*%
%TO.N,Net-(D18-DO)*%
X186450000Y-157400000D03*
%TD*%
D15*
%TO.P,R4,1*%
%TO.N,+5V*%
X329080000Y-155800000D03*
%TO.P,R4,2*%
%TO.N,Net-(D1-A)*%
X330100000Y-155800000D03*
%TD*%
D13*
%TO.P,D3,1,VSS*%
%TO.N,GND*%
X31550000Y-157400000D03*
%TO.P,D3,2,DIN*%
%TO.N,Net-(D2-DO)*%
X31550000Y-160600000D03*
%TO.P,D3,3,VDD*%
%TO.N,+3.3V*%
X36450000Y-160600000D03*
%TO.P,D3,4,DO*%
%TO.N,Net-(D3-DO)*%
X36450000Y-157400000D03*
%TD*%
D17*
%TO.P,SW4,1,1*%
%TO.N,/BOOT*%
X201200000Y-148049999D03*
%TO.P,SW4,2,2*%
X209200000Y-148049999D03*
%TO.P,SW4,3,3*%
%TO.N,GND*%
X201200000Y-152550001D03*
%TO.P,SW4,4,4*%
X209200000Y-152550001D03*
%TD*%
%TO.P,SW1,1,1*%
%TO.N,/RESET*%
X211800000Y-148049999D03*
%TO.P,SW1,2,2*%
X219800000Y-148049999D03*
%TO.P,SW1,3,3*%
%TO.N,GND*%
X211800000Y-152550001D03*
%TO.P,SW1,4,4*%
X219800000Y-152550001D03*
%TD*%
D13*
%TO.P,D5,1,VSS*%
%TO.N,GND*%
X51550000Y-157400000D03*
%TO.P,D5,2,DIN*%
%TO.N,Net-(D4-DO)*%
X51550000Y-160600000D03*
%TO.P,D5,3,VDD*%
%TO.N,+3.3V*%
X56450000Y-160600000D03*
%TO.P,D5,4,DO*%
%TO.N,Net-(D5-DO)*%
X56450000Y-157400000D03*
%TD*%
%TO.P,D17,1,VSS*%
%TO.N,GND*%
X171550000Y-157400000D03*
%TO.P,D17,2,DIN*%
%TO.N,Net-(D16-DO)*%
X171550000Y-160600000D03*
%TO.P,D17,3,VDD*%
%TO.N,+3.3V*%
X176450000Y-160600000D03*
%TO.P,D17,4,DO*%
%TO.N,Net-(D17-DO)*%
X176450000Y-157400000D03*
%TD*%
%TO.P,D13,1,VSS*%
%TO.N,GND*%
X131550000Y-157400000D03*
%TO.P,D13,2,DIN*%
%TO.N,Net-(D12-DO)*%
X131550000Y-160600000D03*
%TO.P,D13,3,VDD*%
%TO.N,+3.3V*%
X136450000Y-160600000D03*
%TO.P,D13,4,DO*%
%TO.N,Net-(D13-DO)*%
X136450000Y-157400000D03*
%TD*%
D15*
%TO.P,R6,1*%
%TO.N,/BTN_3*%
X21480000Y-154900000D03*
%TO.P,R6,2*%
%TO.N,GND*%
X22500000Y-154900000D03*
%TD*%
D13*
%TO.P,D21,1,VSS*%
%TO.N,GND*%
X211550000Y-157400000D03*
%TO.P,D21,2,DIN*%
%TO.N,Net-(D20-DO)*%
X211550000Y-160600000D03*
%TO.P,D21,3,VDD*%
%TO.N,+3.3V*%
X216450000Y-160600000D03*
%TO.P,D21,4,DO*%
%TO.N,Net-(D21-DO)*%
X216450000Y-157400000D03*
%TD*%
D20*
%TO.P,R7,1*%
%TO.N,Net-(U2-PROG)*%
X265900000Y-149090000D03*
%TO.P,R7,2*%
%TO.N,GND*%
X265900000Y-150110000D03*
%TD*%
D13*
%TO.P,D23,1,VSS*%
%TO.N,GND*%
X231550000Y-157300000D03*
%TO.P,D23,2,DIN*%
%TO.N,Net-(D22-DO)*%
X231550000Y-160500000D03*
%TO.P,D23,3,VDD*%
%TO.N,+3.3V*%
X236450000Y-160500000D03*
%TO.P,D23,4,DO*%
%TO.N,Net-(D23-DO)*%
X236450000Y-157300000D03*
%TD*%
%TO.P,D25,1,VSS*%
%TO.N,GND*%
X251550000Y-157400000D03*
%TO.P,D25,2,DIN*%
%TO.N,Net-(D24-DO)*%
X251550000Y-160600000D03*
%TO.P,D25,3,VDD*%
%TO.N,+3.3V*%
X256450000Y-160600000D03*
%TO.P,D25,4,DO*%
%TO.N,unconnected-(D25-DO-Pad4)*%
X256450000Y-157400000D03*
%TD*%
%TO.P,D14,1,VSS*%
%TO.N,GND*%
X141550000Y-157400000D03*
%TO.P,D14,2,DIN*%
%TO.N,Net-(D13-DO)*%
X141550000Y-160600000D03*
%TO.P,D14,3,VDD*%
%TO.N,+3.3V*%
X146450000Y-160600000D03*
%TO.P,D14,4,DO*%
%TO.N,Net-(D14-DO)*%
X146450000Y-157400000D03*
%TD*%
%TO.P,D8,1,VSS*%
%TO.N,GND*%
X81550000Y-157400000D03*
%TO.P,D8,2,DIN*%
%TO.N,Net-(D7-DO)*%
X81550000Y-160600000D03*
%TO.P,D8,3,VDD*%
%TO.N,+3.3V*%
X86450000Y-160600000D03*
%TO.P,D8,4,DO*%
%TO.N,Net-(D8-DO)*%
X86450000Y-157400000D03*
%TD*%
%TO.P,D7,1,VSS*%
%TO.N,GND*%
X71550000Y-157400000D03*
%TO.P,D7,2,DIN*%
%TO.N,Net-(D6-DO)*%
X71550000Y-160600000D03*
%TO.P,D7,3,VDD*%
%TO.N,+3.3V*%
X76450000Y-160600000D03*
%TO.P,D7,4,DO*%
%TO.N,Net-(D7-DO)*%
X76450000Y-157400000D03*
%TD*%
%TO.P,D10,1,VSS*%
%TO.N,GND*%
X101550000Y-157400000D03*
%TO.P,D10,2,DIN*%
%TO.N,Net-(D10-DIN)*%
X101550000Y-160600000D03*
%TO.P,D10,3,VDD*%
%TO.N,+3.3V*%
X106450000Y-160600000D03*
%TO.P,D10,4,DO*%
%TO.N,Net-(D10-DO)*%
X106450000Y-157400000D03*
%TD*%
D17*
%TO.P,SW5,1,1*%
%TO.N,+3.3V*%
X21900000Y-148249999D03*
%TO.P,SW5,2,2*%
X29900000Y-148249999D03*
%TO.P,SW5,3,3*%
%TO.N,/BTN_3*%
X21900000Y-152750001D03*
%TO.P,SW5,4,4*%
X29900000Y-152750001D03*
%TD*%
D13*
%TO.P,D6,1,VSS*%
%TO.N,GND*%
X61550000Y-157400000D03*
%TO.P,D6,2,DIN*%
%TO.N,Net-(D5-DO)*%
X61550000Y-160600000D03*
%TO.P,D6,3,VDD*%
%TO.N,+3.3V*%
X66450000Y-160600000D03*
%TO.P,D6,4,DO*%
%TO.N,Net-(D6-DO)*%
X66450000Y-157400000D03*
%TD*%
D17*
%TO.P,SW3,1,1*%
%TO.N,+3.3V*%
X32400000Y-148249999D03*
%TO.P,SW3,2,2*%
X40400000Y-148249999D03*
%TO.P,SW3,3,3*%
%TO.N,/BTN_2*%
X32400000Y-152750001D03*
%TO.P,SW3,4,4*%
X40400000Y-152750001D03*
%TD*%
D13*
%TO.P,D15,1,VSS*%
%TO.N,GND*%
X151550000Y-157400000D03*
%TO.P,D15,2,DIN*%
%TO.N,Net-(D14-DO)*%
X151550000Y-160600000D03*
%TO.P,D15,3,VDD*%
%TO.N,+3.3V*%
X156450000Y-160600000D03*
%TO.P,D15,4,DO*%
%TO.N,Net-(D15-DO)*%
X156450000Y-157400000D03*
%TD*%
D15*
%TO.P,R5,1*%
%TO.N,/BTN_2*%
X40180000Y-154800000D03*
%TO.P,R5,2*%
%TO.N,GND*%
X41200000Y-154800000D03*
%TD*%
D13*
%TO.P,D24,1,VSS*%
%TO.N,GND*%
X241550000Y-157400000D03*
%TO.P,D24,2,DIN*%
%TO.N,Net-(D23-DO)*%
X241550000Y-160600000D03*
%TO.P,D24,3,VDD*%
%TO.N,+3.3V*%
X246450000Y-160600000D03*
%TO.P,D24,4,DO*%
%TO.N,Net-(D24-DO)*%
X246450000Y-157400000D03*
%TD*%
D21*
%TO.P,J3,1,Pin_1*%
%TO.N,Net-(J3-Pin_1)*%
X189810000Y-148550000D03*
%TO.P,J3,2,Pin_2*%
%TO.N,Net-(J3-Pin_2)*%
X187270000Y-151850000D03*
%TO.P,J3,3,Pin_3*%
%TO.N,Net-(J3-Pin_3)*%
X184730000Y-148550000D03*
%TO.P,J3,4,Pin_4*%
%TO.N,Net-(J3-Pin_4)*%
X182190000Y-151850000D03*
%TD*%
D13*
%TO.P,D9,1,VSS*%
%TO.N,GND*%
X91550000Y-157400000D03*
%TO.P,D9,2,DIN*%
%TO.N,Net-(D8-DO)*%
X91550000Y-160600000D03*
%TO.P,D9,3,VDD*%
%TO.N,+3.3V*%
X96450000Y-160600000D03*
%TO.P,D9,4,DO*%
%TO.N,Net-(D10-DIN)*%
X96450000Y-157400000D03*
%TD*%
D15*
%TO.P,R1,1*%
%TO.N,+3.3V*%
X210780000Y-154700000D03*
%TO.P,R1,2*%
%TO.N,/RESET*%
X211800000Y-154700000D03*
%TD*%
D22*
%TO.P,U2,1,STAT*%
%TO.N,/charger_status*%
X260062500Y-149050000D03*
%TO.P,U2,2,V_{SS}*%
%TO.N,GND*%
X260062500Y-150000000D03*
%TO.P,U2,3,V_{BAT}*%
%TO.N,+BATT*%
X260062500Y-150950000D03*
%TO.P,U2,4,V_{DD}*%
%TO.N,+5V*%
X262337500Y-150950000D03*
%TO.P,U2,5,PROG*%
%TO.N,Net-(U2-PROG)*%
X262337500Y-149050000D03*
%TD*%
D15*
%TO.P,R2,1*%
%TO.N,/BTN_1*%
X53590000Y-152500000D03*
%TO.P,R2,2*%
%TO.N,GND*%
X54610000Y-152500000D03*
%TD*%
D13*
%TO.P,D11,1,VSS*%
%TO.N,GND*%
X111550000Y-157400000D03*
%TO.P,D11,2,DIN*%
%TO.N,Net-(D10-DO)*%
X111550000Y-160600000D03*
%TO.P,D11,3,VDD*%
%TO.N,+3.3V*%
X116450000Y-160600000D03*
%TO.P,D11,4,DO*%
%TO.N,Net-(D11-DO)*%
X116450000Y-157400000D03*
%TD*%
%TO.P,D16,1,VSS*%
%TO.N,GND*%
X161550000Y-157400000D03*
%TO.P,D16,2,DIN*%
%TO.N,Net-(D15-DO)*%
X161550000Y-160600000D03*
%TO.P,D16,3,VDD*%
%TO.N,+3.3V*%
X166450000Y-160600000D03*
%TO.P,D16,4,DO*%
%TO.N,Net-(D16-DO)*%
X166450000Y-157400000D03*
%TD*%
%TO.P,D4,1,VSS*%
%TO.N,GND*%
X41550000Y-157400000D03*
%TO.P,D4,2,DIN*%
%TO.N,Net-(D3-DO)*%
X41550000Y-160600000D03*
%TO.P,D4,3,VDD*%
%TO.N,+3.3V*%
X46450000Y-160600000D03*
%TO.P,D4,4,DO*%
%TO.N,Net-(D4-DO)*%
X46450000Y-157400000D03*
%TD*%
%TO.P,D12,1,VSS*%
%TO.N,GND*%
X121550000Y-157400000D03*
%TO.P,D12,2,DIN*%
%TO.N,Net-(D11-DO)*%
X121550000Y-160600000D03*
%TO.P,D12,3,VDD*%
%TO.N,+3.3V*%
X126450000Y-160600000D03*
%TO.P,D12,4,DO*%
%TO.N,Net-(D12-DO)*%
X126450000Y-157400000D03*
%TD*%
D23*
%TO.P,BT1,1,+*%
%TO.N,+BATT*%
X244670700Y-148730000D03*
%TO.P,BT1,2,-*%
%TO.N,GND*%
X244670700Y-151270000D03*
%TD*%
D24*
%TO.P,U1,1,GND*%
%TO.N,GND*%
X309625000Y-154025000D03*
%TO.P,U1,2,GND*%
X309625000Y-154825000D03*
%TO.P,U1,3,3V3*%
%TO.N,+3.3V*%
X309625000Y-155625000D03*
%TO.P,U1,4,NC*%
%TO.N,unconnected-(U1-NC-Pad4)*%
X309625000Y-156425000D03*
%TO.P,U1,5,IO2*%
%TO.N,unconnected-(U1-IO2-Pad5)*%
X309625000Y-157225000D03*
%TO.P,U1,6,IO3*%
%TO.N,unconnected-(U1-IO3-Pad6)*%
X309625000Y-158025000D03*
%TO.P,U1,7,NC*%
%TO.N,unconnected-(U1-NC-Pad7)*%
X309625000Y-158825000D03*
%TO.P,U1,8,EN*%
%TO.N,/RESET*%
X309625000Y-159625000D03*
%TO.P,U1,9,IO4*%
%TO.N,unconnected-(U1-IO4-Pad9)*%
X309625000Y-160425000D03*
%TO.P,U1,10,IO5*%
%TO.N,unconnected-(U1-IO5-Pad10)*%
X309625000Y-161225000D03*
%TO.P,U1,11,GND*%
%TO.N,GND*%
X309625000Y-162025000D03*
D25*
%TO.P,U1,12,IO0*%
%TO.N,unconnected-(U1-IO0-Pad12)*%
X310725000Y-162925000D03*
%TO.P,U1,13,IO1*%
%TO.N,unconnected-(U1-IO1-Pad13)*%
X311525000Y-162925000D03*
%TO.P,U1,14,GND*%
%TO.N,GND*%
X312325000Y-162925000D03*
%TO.P,U1,15,IO6*%
%TO.N,unconnected-(U1-IO6-Pad15)*%
X313125000Y-162925000D03*
%TO.P,U1,16,IO7*%
%TO.N,Net-(J3-Pin_1)*%
X313925000Y-162925000D03*
%TO.P,U1,17,IO12*%
%TO.N,/USB_D-*%
X314725000Y-162925000D03*
%TO.P,U1,18,IO13*%
%TO.N,/USB_D+*%
X315525000Y-162925000D03*
%TO.P,U1,19,IO14*%
%TO.N,unconnected-(U1-IO14-Pad19)*%
X316325000Y-162925000D03*
%TO.P,U1,20,IO15*%
%TO.N,unconnected-(U1-IO15-Pad20)*%
X317125000Y-162925000D03*
%TO.P,U1,21,NC*%
%TO.N,unconnected-(U1-NC-Pad21)*%
X317925000Y-162925000D03*
%TO.P,U1,22,IO8*%
%TO.N,Net-(J3-Pin_2)*%
X318725000Y-162925000D03*
%TO.P,U1,23,IO9*%
%TO.N,/BOOT*%
X319525000Y-162925000D03*
%TO.P,U1,24,IO18*%
%TO.N,/LED_DATA*%
X320325000Y-162925000D03*
D24*
%TO.P,U1,25,IO19*%
%TO.N,/BTN_1*%
X321425000Y-162025000D03*
%TO.P,U1,26,IO20*%
%TO.N,/BTN_2*%
X321425000Y-161225000D03*
%TO.P,U1,27,IO21*%
%TO.N,/BTN_3*%
X321425000Y-160425000D03*
%TO.P,U1,28,IO22*%
%TO.N,Net-(J3-Pin_4)*%
X321425000Y-159625000D03*
%TO.P,U1,29,IO23*%
%TO.N,Net-(J3-Pin_3)*%
X321425000Y-158825000D03*
%TO.P,U1,30,RXD0*%
%TO.N,/RX*%
X321425000Y-158025000D03*
%TO.P,U1,31,TXD0*%
%TO.N,/TX*%
X321425000Y-157225000D03*
%TO.P,U1,32,NC*%
%TO.N,unconnected-(U1-NC-Pad32)*%
X321425000Y-156425000D03*
%TO.P,U1,33,NC*%
%TO.N,unconnected-(U1-NC-Pad33)*%
X321425000Y-155625000D03*
%TO.P,U1,34,NC*%
%TO.N,unconnected-(U1-NC-Pad34)*%
X321425000Y-154825000D03*
%TO.P,U1,35,NC*%
%TO.N,unconnected-(U1-NC-Pad35)*%
X321425000Y-154025000D03*
D25*
%TO.P,U1,36,GND*%
%TO.N,GND*%
X320325000Y-153125000D03*
%TO.P,U1,37,GND*%
X319525000Y-153125000D03*
%TO.P,U1,38,GND*%
X318725000Y-153125000D03*
%TO.P,U1,39,GND*%
X317925000Y-153125000D03*
%TO.P,U1,40,GND*%
X317125000Y-153125000D03*
%TO.P,U1,41,GND*%
X316325000Y-153125000D03*
%TO.P,U1,42,GND*%
X315525000Y-153125000D03*
%TO.P,U1,43,GND*%
X314725000Y-153125000D03*
%TO.P,U1,44,GND*%
X313925000Y-153125000D03*
%TO.P,U1,45,GND*%
X313125000Y-153125000D03*
%TO.P,U1,46,GND*%
X312325000Y-153125000D03*
%TO.P,U1,47,GND*%
X311525000Y-153125000D03*
%TO.P,U1,48,GND*%
X310725000Y-153125000D03*
D26*
%TO.P,U1,49,GND*%
X313550000Y-156050000D03*
D27*
X313550000Y-158025000D03*
X313550000Y-160000000D03*
X315525000Y-156050000D03*
X315525000Y-158025000D03*
X315525000Y-160000000D03*
X317500000Y-156050000D03*
X317500000Y-158025000D03*
X317500000Y-160000000D03*
D28*
%TO.P,U1,50,GND*%
X321475000Y-153075000D03*
%TO.P,U1,51,GND*%
X321475000Y-162975000D03*
%TO.P,U1,52,GND*%
X309575000Y-162975000D03*
%TO.P,U1,53,GND*%
X309575000Y-153075000D03*
%TD*%
D29*
%TO.N,/BTN_3*%
X215000000Y-165100000D03*
X257800000Y-164700000D03*
X29900000Y-150700000D03*
X301100000Y-163200000D03*
X261500000Y-165600000D03*
X217900000Y-165200000D03*
X304200000Y-163200000D03*
%TO.N,/BOOT*%
X304000000Y-162400003D03*
%TO.N,/BTN_3*%
X306600000Y-163200000D03*
X318400000Y-165100000D03*
X323700000Y-161800000D03*
X319900000Y-154900000D03*
%TO.N,/BTN_2*%
X314525001Y-154891987D03*
%TO.N,/BTN_3*%
X319900000Y-154900000D03*
%TO.N,/BTN_2*%
X296500000Y-158400000D03*
X323000000Y-159600000D03*
X311800000Y-156600000D03*
X301900000Y-157200000D03*
X304014921Y-158614921D03*
X42600000Y-165300000D03*
X42600000Y-154600000D03*
X42600000Y-167700000D03*
X301700000Y-165100000D03*
%TO.N,+3.3V*%
X29100000Y-160300000D03*
X31100000Y-155000000D03*
%TO.N,/BTN_1*%
X301700000Y-161400000D03*
X46700000Y-151900000D03*
X306500000Y-160500000D03*
X43700000Y-167000000D03*
X304000000Y-161600000D03*
X307100000Y-162200000D03*
X43700000Y-165500000D03*
%TO.N,Net-(J3-Pin_1)*%
X303700000Y-160474598D03*
X301500000Y-160400000D03*
X306300000Y-159100000D03*
%TO.N,/RESET*%
X303900000Y-159700000D03*
X306300000Y-158200000D03*
%TO.N,/BTN_1*%
X314000000Y-161400000D03*
%TO.N,+5V*%
X329000000Y-164800000D03*
X330100000Y-156900000D03*
%TO.N,Net-(J3-Pin_2)*%
X318634358Y-161943761D03*
X329400000Y-154900000D03*
X304000000Y-152900000D03*
X304000000Y-155800000D03*
X288700000Y-152500000D03*
X293700000Y-157400000D03*
X192086863Y-149291962D03*
X214015544Y-148757772D03*
X212100000Y-149500000D03*
X329400000Y-152900000D03*
%TO.N,Net-(J3-Pin_1)*%
X308000000Y-161600000D03*
X295000000Y-157100000D03*
X268200000Y-148700000D03*
X192200000Y-148500000D03*
X311300000Y-165100000D03*
%TO.N,/RESET*%
X215700000Y-147900000D03*
X294700000Y-153200000D03*
X213300000Y-148400000D03*
X212800000Y-154500000D03*
%TO.N,+3.3V*%
X196600000Y-163800000D03*
X196600000Y-154600000D03*
%TO.N,/charger_status*%
X334100000Y-156000000D03*
X292300000Y-154100000D03*
%TO.N,/BOOT*%
X251200000Y-147300000D03*
X319300000Y-161500000D03*
X207400000Y-148000000D03*
%TO.N,/LED_DATA*%
X319800000Y-160700000D03*
X23500000Y-159100000D03*
D30*
%TO.N,+3.3V*%
X311200000Y-155600000D03*
X302700000Y-168700000D03*
D31*
%TO.N,GND*%
X305300000Y-168500000D03*
X305300000Y-164600000D03*
%TO.N,+3.3V*%
X216500000Y-165000000D03*
X216500000Y-154500000D03*
%TO.N,GND*%
X254000000Y-153600000D03*
X254000000Y-149551000D03*
D29*
%TO.N,/USB_D-*%
X314599479Y-164599479D03*
%TO.N,/USB_D+*%
X315200521Y-165200521D03*
X326203835Y-163535000D03*
%TO.N,/USB_D-*%
X326203835Y-162685000D03*
%TD*%
D32*
%TO.N,GND*%
X111600000Y-156200000D02*
X101400000Y-156200000D01*
X111600000Y-157350000D02*
X111550000Y-157400000D01*
X111600000Y-156200000D02*
X111600000Y-157350000D01*
D33*
%TO.N,/BTN_3*%
X302101000Y-163200000D02*
X301100000Y-163200000D01*
X217049000Y-166051000D02*
X215951000Y-166051000D01*
X217900000Y-165200000D02*
X217049000Y-166051000D01*
X215951000Y-166051000D02*
X215000000Y-165100000D01*
X258700000Y-165600000D02*
X257800000Y-164700000D01*
X261500000Y-165600000D02*
X258700000Y-165600000D01*
X29900000Y-150700000D02*
X29900000Y-152750001D01*
%TO.N,/BTN_2*%
X301700000Y-165100000D02*
X301700000Y-165000000D01*
X301700000Y-165000000D02*
X297400000Y-160700000D01*
X297400000Y-160700000D02*
X297400000Y-158700000D01*
X297400000Y-158700000D02*
X297100000Y-158400000D01*
X297100000Y-158400000D02*
X296500000Y-158400000D01*
%TO.N,/BTN_3*%
X304200000Y-163200000D02*
X302101000Y-163200000D01*
%TO.N,/BOOT*%
X301850000Y-162400003D02*
X286749997Y-147300000D01*
X304000000Y-162400003D02*
X301850000Y-162400003D01*
%TO.N,/BTN_3*%
X323700000Y-161800000D02*
X323700000Y-162201942D01*
X323700000Y-162201942D02*
X320801942Y-165100000D01*
X320801942Y-165100000D02*
X318400000Y-165100000D01*
X319900000Y-154900000D02*
X319900000Y-155000000D01*
%TO.N,/BTN_2*%
X313426835Y-154891987D02*
X314525001Y-154891987D01*
X311800000Y-156518822D02*
X313426835Y-154891987D01*
%TO.N,/BTN_3*%
X321425000Y-160425000D02*
X321042043Y-160425000D01*
X321042043Y-160425000D02*
X319900000Y-159282957D01*
X319900000Y-159282957D02*
X319900000Y-154900000D01*
%TO.N,/BTN_1*%
X318150057Y-161400000D02*
X319551057Y-159999000D01*
X320048943Y-159999000D02*
X320426505Y-160376562D01*
X319551057Y-159999000D02*
X320048943Y-159999000D01*
X320426505Y-160376562D02*
X320426505Y-161594238D01*
X314000000Y-161400000D02*
X318150057Y-161400000D01*
X320426505Y-161594238D02*
X320857267Y-162025000D01*
X320857267Y-162025000D02*
X321425000Y-162025000D01*
%TO.N,/LED_DATA*%
X319800000Y-160700000D02*
X320300000Y-162900000D01*
X320300000Y-162900000D02*
X320325000Y-162925000D01*
%TO.N,/BTN_3*%
X321400000Y-160400000D02*
X321425000Y-160425000D01*
%TO.N,/BTN_2*%
X323000000Y-159600000D02*
X323000000Y-160052000D01*
X311800000Y-156600000D02*
X311800000Y-156518822D01*
X302400000Y-157000000D02*
X304014921Y-158614921D01*
X302100000Y-157000000D02*
X302400000Y-157000000D01*
X301900000Y-157200000D02*
X302100000Y-157000000D01*
X323000000Y-160052000D02*
X321827000Y-161225000D01*
X321827000Y-161225000D02*
X321425000Y-161225000D01*
X40750001Y-152750001D02*
X42600000Y-154600000D01*
X40400000Y-152750001D02*
X40750001Y-152750001D01*
X42600000Y-165300000D02*
X42600000Y-167700000D01*
%TO.N,+3.3V*%
X31100000Y-149449999D02*
X31100000Y-155000000D01*
D32*
X29100000Y-161801000D02*
X27202000Y-161801000D01*
D33*
X29900000Y-148249999D02*
X31100000Y-149449999D01*
X29100000Y-160300000D02*
X29100000Y-161801000D01*
%TO.N,/BTN_1*%
X303800000Y-161400000D02*
X301700000Y-161400000D01*
X46700000Y-152650001D02*
X46800000Y-152750001D01*
X307100000Y-161100000D02*
X306500000Y-160500000D01*
X307100000Y-162200000D02*
X307100000Y-161100000D01*
X304000000Y-161600000D02*
X303800000Y-161400000D01*
X43700000Y-167000000D02*
X43700000Y-165500000D01*
X42900000Y-152750001D02*
X46800000Y-152750001D01*
X46700000Y-151900000D02*
X46700000Y-152650001D01*
%TO.N,Net-(J3-Pin_1)*%
X301574598Y-160474598D02*
X301500000Y-160400000D01*
X303700000Y-160474598D02*
X301574598Y-160474598D01*
X306300000Y-159085787D02*
X306300000Y-159100000D01*
%TO.N,/RESET*%
X294700000Y-153200000D02*
X301300000Y-159800000D01*
X301300000Y-159800000D02*
X303800000Y-159800000D01*
X303800000Y-159800000D02*
X303900000Y-159700000D01*
D32*
%TO.N,GND*%
X309575000Y-153075000D02*
X305300000Y-157300000D01*
X305300000Y-168500000D02*
X305300000Y-167402521D01*
%TO.N,+3.3V*%
X256500000Y-161700000D02*
X256450000Y-161650000D01*
X302700000Y-168700000D02*
X276690560Y-168700000D01*
X276690560Y-168700000D02*
X269690560Y-161700000D01*
X269690560Y-161700000D02*
X256500000Y-161700000D01*
D33*
%TO.N,/BTN_1*%
X321400000Y-162000000D02*
X321425000Y-162025000D01*
D32*
%TO.N,GND*%
X326575000Y-153075000D02*
X309575000Y-153075000D01*
D33*
%TO.N,+5V*%
X329000000Y-164800000D02*
X328800000Y-164800000D01*
X328090000Y-165510000D02*
X327520000Y-165510000D01*
X329080000Y-155800000D02*
X329080000Y-155880000D01*
X328800000Y-164800000D02*
X328090000Y-165510000D01*
X329080000Y-155880000D02*
X330100000Y-156900000D01*
%TO.N,Net-(D1-A)*%
X330100000Y-155800000D02*
X330325000Y-155800000D01*
X330325000Y-155800000D02*
X331925000Y-154200000D01*
%TO.N,Net-(J3-Pin_2)*%
X318634358Y-161943761D02*
X318634358Y-162834358D01*
X318634358Y-162834358D02*
X318725000Y-162925000D01*
%TO.N,/BOOT*%
X319525000Y-162073530D02*
X319525000Y-162925000D01*
X319300000Y-161500000D02*
X319525000Y-162073530D01*
%TO.N,Net-(J3-Pin_2)*%
X329400000Y-152900000D02*
X329400000Y-154900000D01*
X213273316Y-149500000D02*
X214015544Y-148757772D01*
X293700000Y-156917043D02*
X293700000Y-157400000D01*
X292641479Y-155858522D02*
X293700000Y-156917043D01*
X187270000Y-151850000D02*
X189528825Y-151850000D01*
X189528825Y-151850000D02*
X192086863Y-149291962D01*
X288700000Y-152500000D02*
X289282957Y-152500000D01*
X304000000Y-155800000D02*
X304000000Y-152900000D01*
X289282957Y-152500000D02*
X292641479Y-155858522D01*
X212100000Y-149500000D02*
X213273316Y-149500000D01*
%TO.N,Net-(J3-Pin_1)*%
X313925000Y-162925000D02*
X313925000Y-163375000D01*
X295000000Y-157100000D02*
X294450057Y-157100000D01*
X192150000Y-148550000D02*
X189810000Y-148550000D01*
X313925000Y-163375000D02*
X312200000Y-165100000D01*
X308000000Y-160785787D02*
X306300000Y-159085787D01*
X285452057Y-148102000D02*
X281600000Y-148102000D01*
X312200000Y-165100000D02*
X311300000Y-165100000D01*
X268798000Y-148102000D02*
X268200000Y-148700000D01*
X308000000Y-161600000D02*
X308000000Y-160785787D01*
X269400000Y-148102000D02*
X268798000Y-148102000D01*
X294450057Y-157100000D02*
X285452057Y-148102000D01*
X281600000Y-148102000D02*
X269400000Y-148102000D01*
X192200000Y-148500000D02*
X192150000Y-148550000D01*
%TO.N,/RESET*%
X215849999Y-148049999D02*
X215700000Y-147900000D01*
X219800000Y-148049999D02*
X215849999Y-148049999D01*
X306300000Y-158200000D02*
X307725000Y-159625000D01*
X307725000Y-159625000D02*
X309625000Y-159625000D01*
X213300000Y-148400000D02*
X213650001Y-148049999D01*
X213650001Y-148049999D02*
X219800000Y-148049999D01*
X211800000Y-154700000D02*
X212600000Y-154700000D01*
X212600000Y-154700000D02*
X212800000Y-154500000D01*
X213300000Y-148400000D02*
X212150001Y-148400000D01*
X212150001Y-148400000D02*
X211800000Y-148049999D01*
%TO.N,+3.3V*%
X210780000Y-154700000D02*
X211401000Y-155321000D01*
X211401000Y-155321000D02*
X215679000Y-155321000D01*
X215679000Y-155321000D02*
X216500000Y-154500000D01*
X196600000Y-161901000D02*
X196700000Y-161801000D01*
X196580000Y-149100000D02*
X196580000Y-154580000D01*
X196580000Y-154580000D02*
X196600000Y-154600000D01*
X196600000Y-163800000D02*
X196600000Y-161901000D01*
%TO.N,/BOOT*%
X197600000Y-149100000D02*
X200149999Y-149100000D01*
X200149999Y-149100000D02*
X201200000Y-148049999D01*
%TO.N,/RESET*%
X211800000Y-148049999D02*
X211849999Y-148049999D01*
X211900000Y-148100000D02*
X211849999Y-148049999D01*
D32*
%TO.N,GND*%
X61400000Y-156200000D02*
X54600000Y-156200000D01*
D33*
X54610000Y-152500000D02*
X54610000Y-156190000D01*
X54610000Y-156190000D02*
X54600000Y-156200000D01*
%TO.N,/BTN_1*%
X50900000Y-152750001D02*
X53339999Y-152750001D01*
X53339999Y-152750001D02*
X53590000Y-152500000D01*
D32*
%TO.N,GND*%
X251550000Y-157400000D02*
X251600000Y-157400000D01*
X256699000Y-156200000D02*
X251600000Y-156200000D01*
X251550000Y-157400000D02*
X251550000Y-156250000D01*
X251550000Y-156250000D02*
X251600000Y-156200000D01*
X251600000Y-156200000D02*
X241600000Y-156200000D01*
X241550000Y-157400000D02*
X241550000Y-156250000D01*
X241550000Y-156250000D02*
X241600000Y-156200000D01*
X241600000Y-156200000D02*
X231400000Y-156200000D01*
X231550000Y-157300000D02*
X231550000Y-156350000D01*
X231550000Y-156350000D02*
X231400000Y-156200000D01*
X224500000Y-156200000D02*
X221600000Y-156200000D01*
X221550000Y-157400000D02*
X221550000Y-156250000D01*
X221550000Y-156250000D02*
X221600000Y-156200000D01*
X221600000Y-156200000D02*
X211500000Y-156200000D01*
X211550000Y-157400000D02*
X211550000Y-156250000D01*
X211550000Y-156250000D02*
X211500000Y-156200000D01*
X209200000Y-156200000D02*
X201500000Y-156200000D01*
X201550000Y-157400000D02*
X201550000Y-156250000D01*
X201550000Y-156250000D02*
X201500000Y-156200000D01*
X201500000Y-156200000D02*
X191500000Y-156200000D01*
X191550000Y-157400000D02*
X191550000Y-156250000D01*
X191550000Y-156250000D02*
X191500000Y-156200000D01*
X191500000Y-156200000D02*
X181300000Y-156200000D01*
X181550000Y-157400000D02*
X181550000Y-156450000D01*
X181550000Y-156450000D02*
X181300000Y-156200000D01*
X181300000Y-156200000D02*
X171300000Y-156200000D01*
X171550000Y-157400000D02*
X171550000Y-156450000D01*
X171550000Y-156450000D02*
X171300000Y-156200000D01*
X171300000Y-156200000D02*
X161600000Y-156200000D01*
X161550000Y-157400000D02*
X161550000Y-156250000D01*
X161550000Y-156250000D02*
X161600000Y-156200000D01*
X161600000Y-156200000D02*
X151700000Y-156200000D01*
X151550000Y-157400000D02*
X151550000Y-156350000D01*
X151550000Y-156350000D02*
X151700000Y-156200000D01*
X151700000Y-156200000D02*
X141600000Y-156200000D01*
X141550000Y-157400000D02*
X141550000Y-156250000D01*
X141550000Y-156250000D02*
X141600000Y-156200000D01*
X141600000Y-156200000D02*
X131600000Y-156200000D01*
X131550000Y-157400000D02*
X131550000Y-156250000D01*
X131550000Y-156250000D02*
X131600000Y-156200000D01*
X131600000Y-156200000D02*
X121500000Y-156200000D01*
X121550000Y-156250000D02*
X121500000Y-156200000D01*
X121550000Y-157400000D02*
X121550000Y-156250000D01*
X121500000Y-156200000D02*
X111600000Y-156200000D01*
X101550000Y-156350000D02*
X101400000Y-156200000D01*
X101550000Y-157400000D02*
X101550000Y-156350000D01*
X101400000Y-156200000D02*
X91700000Y-156200000D01*
X91550000Y-156350000D02*
X91700000Y-156200000D01*
X91550000Y-157400000D02*
X91550000Y-156350000D01*
X91700000Y-156200000D02*
X81600000Y-156200000D01*
X81550000Y-157400000D02*
X81550000Y-156250000D01*
X81550000Y-156250000D02*
X81600000Y-156200000D01*
X81600000Y-156200000D02*
X71900000Y-156200000D01*
X71550000Y-157400000D02*
X71550000Y-156550000D01*
X71550000Y-156550000D02*
X71900000Y-156200000D01*
X71900000Y-156200000D02*
X61400000Y-156200000D01*
X61550000Y-157400000D02*
X61550000Y-156350000D01*
X61550000Y-156350000D02*
X61400000Y-156200000D01*
X54600000Y-156200000D02*
X51300000Y-156200000D01*
X51550000Y-157400000D02*
X51550000Y-156450000D01*
X51550000Y-156450000D02*
X51300000Y-156200000D01*
X51300000Y-156200000D02*
X41800000Y-156200000D01*
X41550000Y-157400000D02*
X41550000Y-156450000D01*
X41550000Y-156450000D02*
X41800000Y-156200000D01*
X41300000Y-156200000D02*
X31500000Y-156200000D01*
X31550000Y-157400000D02*
X31550000Y-156250000D01*
X31550000Y-156250000D02*
X31500000Y-156200000D01*
X41800000Y-156200000D02*
X41300000Y-156200000D01*
D33*
X41200000Y-154800000D02*
X41200000Y-156100000D01*
X41200000Y-156100000D02*
X41300000Y-156200000D01*
%TO.N,/BTN_2*%
X40400000Y-152750001D02*
X40400000Y-154580000D01*
X40400000Y-154580000D02*
X40180000Y-154800000D01*
%TO.N,/BTN_1*%
X46800000Y-152750001D02*
X50900000Y-152750001D01*
%TO.N,/BTN_2*%
X32400000Y-152750001D02*
X40400000Y-152750001D01*
%TO.N,+3.3V*%
X21900000Y-148249999D02*
X50900000Y-148249999D01*
%TO.N,/BTN_3*%
X21900000Y-152750001D02*
X29900000Y-152750001D01*
%TO.N,GND*%
X22500000Y-154900000D02*
X22500000Y-155950000D01*
X22500000Y-155950000D02*
X22750000Y-156200000D01*
%TO.N,/BTN_3*%
X21900000Y-152750001D02*
X21900000Y-154480000D01*
X21900000Y-154480000D02*
X21480000Y-154900000D01*
%TO.N,/charger_status*%
X260062500Y-149050000D02*
X261411500Y-147701000D01*
X286583897Y-147701000D02*
X291891449Y-153008552D01*
X291891449Y-153008552D02*
X292300000Y-153417103D01*
X292300000Y-153417103D02*
X292300000Y-154100000D01*
X261411500Y-147701000D02*
X286583897Y-147701000D01*
X334100000Y-154500000D02*
X333800000Y-154200000D01*
X334100000Y-156000000D02*
X334100000Y-154500000D01*
%TO.N,GND*%
X265900000Y-150110000D02*
X260172500Y-150110000D01*
X260172500Y-150110000D02*
X260062500Y-150000000D01*
%TO.N,Net-(U2-PROG)*%
X262337500Y-149050000D02*
X265860000Y-149050000D01*
X265860000Y-149050000D02*
X265900000Y-149090000D01*
D32*
%TO.N,GND*%
X211500000Y-156200000D02*
X209200000Y-156200000D01*
D33*
X209200000Y-152550001D02*
X209200000Y-156200000D01*
X201200000Y-152550001D02*
X219800000Y-152550001D01*
%TO.N,/BOOT*%
X207400000Y-148000000D02*
X207350001Y-148049999D01*
X207350001Y-148049999D02*
X201200000Y-148049999D01*
X209150001Y-148000000D02*
X209200000Y-148049999D01*
X207400000Y-148000000D02*
X209150001Y-148000000D01*
%TO.N,/LED_DATA*%
X22000000Y-160600000D02*
X23500000Y-159100000D01*
X21550000Y-160600000D02*
X22000000Y-160600000D01*
%TO.N,Net-(D24-DO)*%
X246450000Y-157400000D02*
X248350000Y-157400000D01*
X248350000Y-157400000D02*
X251550000Y-160600000D01*
%TO.N,Net-(D23-DO)*%
X236450000Y-157300000D02*
X238250000Y-157300000D01*
X238250000Y-157300000D02*
X241550000Y-160600000D01*
%TO.N,Net-(D22-DO)*%
X226450000Y-157400000D02*
X228450000Y-157400000D01*
X228450000Y-157400000D02*
X231550000Y-160500000D01*
%TO.N,Net-(D21-DO)*%
X216450000Y-157400000D02*
X218350000Y-157400000D01*
X218350000Y-157400000D02*
X221550000Y-160600000D01*
%TO.N,Net-(D20-DO)*%
X206450000Y-157400000D02*
X208350000Y-157400000D01*
X208350000Y-157400000D02*
X211550000Y-160600000D01*
%TO.N,Net-(D19-DO)*%
X196450000Y-157400000D02*
X198350000Y-157400000D01*
X198350000Y-157400000D02*
X201550000Y-160600000D01*
%TO.N,Net-(D18-DO)*%
X186450000Y-157400000D02*
X188350000Y-157400000D01*
X188350000Y-157400000D02*
X191550000Y-160600000D01*
%TO.N,Net-(D17-DO)*%
X176450000Y-157400000D02*
X178350000Y-157400000D01*
X178350000Y-157400000D02*
X181550000Y-160600000D01*
%TO.N,Net-(D16-DO)*%
X166450000Y-157400000D02*
X168350000Y-157400000D01*
X168350000Y-157400000D02*
X171550000Y-160600000D01*
%TO.N,Net-(D15-DO)*%
X156450000Y-157400000D02*
X158350000Y-157400000D01*
X158350000Y-157400000D02*
X161550000Y-160600000D01*
%TO.N,Net-(D14-DO)*%
X146450000Y-157400000D02*
X148350000Y-157400000D01*
X148350000Y-157400000D02*
X151550000Y-160600000D01*
%TO.N,Net-(D13-DO)*%
X136450000Y-157400000D02*
X138350000Y-157400000D01*
X138350000Y-157400000D02*
X141550000Y-160600000D01*
%TO.N,Net-(D12-DO)*%
X126450000Y-157400000D02*
X128350000Y-157400000D01*
X128350000Y-157400000D02*
X131550000Y-160600000D01*
%TO.N,Net-(D11-DO)*%
X116450000Y-157400000D02*
X118350000Y-157400000D01*
X118350000Y-157400000D02*
X121550000Y-160600000D01*
%TO.N,Net-(D10-DO)*%
X106450000Y-157400000D02*
X108350000Y-157400000D01*
X108350000Y-157400000D02*
X111550000Y-160600000D01*
%TO.N,Net-(D10-DIN)*%
X96450000Y-157400000D02*
X98350000Y-157400000D01*
X98350000Y-157400000D02*
X101550000Y-160600000D01*
%TO.N,Net-(D8-DO)*%
X86450000Y-157400000D02*
X88350000Y-157400000D01*
X88350000Y-157400000D02*
X91550000Y-160600000D01*
%TO.N,Net-(D7-DO)*%
X76450000Y-157400000D02*
X78350000Y-157400000D01*
X78350000Y-157400000D02*
X81550000Y-160600000D01*
%TO.N,Net-(D6-DO)*%
X66450000Y-157400000D02*
X68350000Y-157400000D01*
X68350000Y-157400000D02*
X71550000Y-160600000D01*
%TO.N,Net-(D5-DO)*%
X56450000Y-157400000D02*
X58350000Y-157400000D01*
X58350000Y-157400000D02*
X61550000Y-160600000D01*
%TO.N,Net-(D4-DO)*%
X46450000Y-157400000D02*
X48350000Y-157400000D01*
X48350000Y-157400000D02*
X51550000Y-160600000D01*
%TO.N,Net-(D3-DO)*%
X36450000Y-157400000D02*
X38350000Y-157400000D01*
X38350000Y-157400000D02*
X41550000Y-160600000D01*
%TO.N,Net-(D2-DO)*%
X26450000Y-157400000D02*
X28350000Y-157400000D01*
X28350000Y-157400000D02*
X31550000Y-160600000D01*
D34*
%TO.N,+3.3V*%
X309625000Y-155625000D02*
X311175000Y-155625000D01*
X311175000Y-155625000D02*
X311200000Y-155600000D01*
D32*
%TO.N,GND*%
X323000000Y-167402521D02*
X305300000Y-167402521D01*
X326575000Y-153075000D02*
X328100000Y-154600000D01*
X328100000Y-154600000D02*
X328095000Y-154605000D01*
X328095000Y-154605000D02*
X328095000Y-158000000D01*
D35*
X321475000Y-162975000D02*
X322077000Y-162975000D01*
X322077000Y-162975000D02*
X322326000Y-162726000D01*
X326084372Y-158000000D02*
X328095000Y-158000000D01*
X322326000Y-162726000D02*
X322326000Y-161758372D01*
X322326000Y-161758372D02*
X326084372Y-158000000D01*
X309575000Y-162975000D02*
X309575000Y-162075000D01*
X309575000Y-162075000D02*
X309625000Y-162025000D01*
X311525000Y-162025000D02*
X311975000Y-161575000D01*
X312325000Y-162925000D02*
X312325000Y-161925000D01*
X312325000Y-161925000D02*
X311975000Y-161575000D01*
X309625000Y-162025000D02*
X311525000Y-162025000D01*
X311975000Y-161575000D02*
X313550000Y-160000000D01*
D32*
X313550000Y-160000000D02*
X313500000Y-160000000D01*
X309575000Y-153075000D02*
X309575000Y-154674000D01*
X315525000Y-156050000D02*
X315525000Y-153125000D01*
X313550000Y-156050000D02*
X313550000Y-160000000D01*
X315525000Y-156050000D02*
X315525000Y-160000000D01*
X317500000Y-156050000D02*
X317500000Y-160000000D01*
X313550000Y-158025000D02*
X317500000Y-158025000D01*
X313550000Y-160000000D02*
X317500000Y-160000000D01*
X313550000Y-156050000D02*
X317500000Y-156050000D01*
%TO.N,+3.3V*%
X46700000Y-161801000D02*
X36500000Y-161801000D01*
X36450000Y-160600000D02*
X36450000Y-161751000D01*
X36450000Y-161751000D02*
X36500000Y-161801000D01*
X56300000Y-161801000D02*
X46700000Y-161801000D01*
X46450000Y-160600000D02*
X46450000Y-161551000D01*
X46450000Y-161551000D02*
X46700000Y-161801000D01*
X66300000Y-161801000D02*
X56300000Y-161801000D01*
X56450000Y-160600000D02*
X56450000Y-161651000D01*
X56450000Y-161651000D02*
X56300000Y-161801000D01*
X76200000Y-161801000D02*
X66300000Y-161801000D01*
X66450000Y-160600000D02*
X66450000Y-161651000D01*
X66450000Y-161651000D02*
X66300000Y-161801000D01*
X86600000Y-161801000D02*
X76200000Y-161801000D01*
X76450000Y-160600000D02*
X76450000Y-161551000D01*
X76450000Y-161551000D02*
X76200000Y-161801000D01*
X96500000Y-161801000D02*
X86600000Y-161801000D01*
X86450000Y-160600000D02*
X86450000Y-161651000D01*
X86450000Y-161651000D02*
X86600000Y-161801000D01*
X106500000Y-161801000D02*
X96500000Y-161801000D01*
X96450000Y-160600000D02*
X96450000Y-161751000D01*
X96450000Y-161751000D02*
X96500000Y-161801000D01*
X116700000Y-161801000D02*
X106500000Y-161801000D01*
X106450000Y-160600000D02*
X106450000Y-161751000D01*
X106450000Y-161751000D02*
X106500000Y-161801000D01*
X126500000Y-161801000D02*
X116700000Y-161801000D01*
X116450000Y-160600000D02*
X116450000Y-161551000D01*
X116450000Y-161551000D02*
X116700000Y-161801000D01*
X136700000Y-161801000D02*
X126500000Y-161801000D01*
X126450000Y-160600000D02*
X126450000Y-161751000D01*
X126450000Y-161751000D02*
X126500000Y-161801000D01*
X146600000Y-161801000D02*
X136700000Y-161801000D01*
X136450000Y-160600000D02*
X136450000Y-161551000D01*
X136450000Y-161551000D02*
X136700000Y-161801000D01*
X156500000Y-161801000D02*
X146600000Y-161801000D01*
X146450000Y-160600000D02*
X146450000Y-161651000D01*
X146450000Y-161651000D02*
X146600000Y-161801000D01*
X166800000Y-161801000D02*
X156500000Y-161801000D01*
X156450000Y-160600000D02*
X156450000Y-161751000D01*
X156450000Y-161751000D02*
X156500000Y-161801000D01*
X176600000Y-161801000D02*
X166800000Y-161801000D01*
X166450000Y-160600000D02*
X166450000Y-161451000D01*
X166450000Y-161451000D02*
X166800000Y-161801000D01*
X186400000Y-161801000D02*
X176600000Y-161801000D01*
X176450000Y-161651000D02*
X176600000Y-161801000D01*
X176450000Y-160600000D02*
X176450000Y-161651000D01*
X196700000Y-161801000D02*
X186400000Y-161801000D01*
X186450000Y-160600000D02*
X186450000Y-161751000D01*
X186450000Y-161751000D02*
X186400000Y-161801000D01*
X206400000Y-161801000D02*
X196700000Y-161801000D01*
X196450000Y-160600000D02*
X196450000Y-161551000D01*
X196450000Y-161551000D02*
X196700000Y-161801000D01*
X214299000Y-161801000D02*
X206400000Y-161801000D01*
X206450000Y-160600000D02*
X206450000Y-161751000D01*
X206450000Y-161751000D02*
X206400000Y-161801000D01*
X217199000Y-161801000D02*
X217198000Y-161800000D01*
X26450000Y-161049000D02*
X26450000Y-160600000D01*
X217198000Y-161800000D02*
X214300000Y-161800000D01*
X214300000Y-161800000D02*
X214299000Y-161801000D01*
X36500000Y-161801000D02*
X29100000Y-161801000D01*
X27202000Y-161801000D02*
X26450000Y-161049000D01*
X217199000Y-161801000D02*
X226400000Y-161801000D01*
X226450000Y-161751000D02*
X226400000Y-161801000D01*
X226450000Y-160600000D02*
X226450000Y-161751000D01*
X226400000Y-161801000D02*
X236700000Y-161801000D01*
X236450000Y-160500000D02*
X236450000Y-161551000D01*
X236450000Y-161551000D02*
X236700000Y-161801000D01*
X236700000Y-161801000D02*
X246400000Y-161801000D01*
X246450000Y-160600000D02*
X246450000Y-161751000D01*
X246450000Y-161751000D02*
X246400000Y-161801000D01*
X216500000Y-165000000D02*
X216500000Y-162500000D01*
X246400000Y-161801000D02*
X256599000Y-161801000D01*
X256599000Y-161801000D02*
X256600000Y-161800000D01*
X216500000Y-162500000D02*
X217199000Y-161801000D01*
X256450000Y-161650000D02*
X256450000Y-160600000D01*
X256600000Y-161800000D02*
X256450000Y-161650000D01*
X216500000Y-162500000D02*
X216500000Y-160650000D01*
X216500000Y-160650000D02*
X216450000Y-160600000D01*
X222000000Y-148100000D02*
X222000000Y-154500000D01*
X222400000Y-147700000D02*
X222000000Y-148100000D01*
X222000000Y-154500000D02*
X216500000Y-154500000D01*
%TO.N,GND*%
X231400000Y-156200000D02*
X224500000Y-156200000D01*
X224700000Y-156000000D02*
X224500000Y-156200000D01*
X224700000Y-154000000D02*
X224700000Y-156000000D01*
X224700000Y-147700000D02*
X224700000Y-154000000D01*
%TO.N,Net-(SW6-A)*%
X240400000Y-148100000D02*
X238150000Y-150350000D01*
X238150000Y-150350000D02*
X229650000Y-150350000D01*
X229650000Y-150350000D02*
X227000000Y-147700000D01*
%TO.N,+BATT*%
X237900000Y-153600000D02*
X242770000Y-148730000D01*
X242770000Y-148730000D02*
X244670700Y-148730000D01*
%TO.N,GND*%
X264144515Y-154455485D02*
X261891030Y-152202000D01*
D35*
X259425190Y-150000000D02*
X259062595Y-149637405D01*
X260062500Y-150000000D02*
X259425190Y-150000000D01*
X260062500Y-150000000D02*
X259000000Y-150000000D01*
X259000000Y-150000000D02*
X258800000Y-149800000D01*
D32*
X254000000Y-149551000D02*
X254249000Y-149800000D01*
X254249000Y-149800000D02*
X258800000Y-149800000D01*
X261891030Y-152202000D02*
X254000000Y-152202000D01*
X258800000Y-149800000D02*
X258942348Y-149800000D01*
X254000000Y-152202000D02*
X254000000Y-153600000D01*
X328095000Y-168220000D02*
X323817479Y-168220000D01*
X323817479Y-168220000D02*
X323000000Y-167402521D01*
X305300000Y-167402521D02*
X277091550Y-167402520D01*
X254000000Y-152202000D02*
X245602700Y-152202000D01*
X245602700Y-152202000D02*
X244670700Y-151270000D01*
X328095000Y-168220000D02*
X328095000Y-167086000D01*
X328095000Y-167086000D02*
X327520000Y-166511000D01*
X328095000Y-158000000D02*
X328095000Y-159198306D01*
X327584306Y-159709000D02*
X327520000Y-159709000D01*
X328095000Y-159198306D02*
X327584306Y-159709000D01*
X328095000Y-168220000D02*
X332025000Y-168220000D01*
X332025000Y-168220000D02*
X332025000Y-158000000D01*
X328095000Y-158000000D02*
X332025000Y-158000000D01*
%TO.N,+5V*%
X276800000Y-165400000D02*
X277601521Y-166201521D01*
X277601521Y-166201521D02*
X323898479Y-166201521D01*
X323898479Y-166201521D02*
X324700000Y-165400000D01*
D33*
%TO.N,/USB_D-*%
X326203835Y-162685000D02*
X325602835Y-163286000D01*
X325602835Y-163286000D02*
X325602835Y-163783943D01*
X326860000Y-163860000D02*
X327520000Y-163860000D01*
X325602835Y-163783943D02*
X325954892Y-164136000D01*
X326584000Y-164136000D02*
X326860000Y-163860000D01*
X325954892Y-164136000D02*
X326584000Y-164136000D01*
%TO.N,/USB_D+*%
X327520000Y-162360000D02*
X328128824Y-162360000D01*
X328396000Y-162627176D02*
X328396000Y-163092824D01*
X328128824Y-163360000D02*
X327520000Y-163360000D01*
X328128824Y-162360000D02*
X328396000Y-162627176D01*
X328396000Y-163092824D02*
X328128824Y-163360000D01*
X315200521Y-165200521D02*
X315200521Y-164917678D01*
%TO.N,/USB_D-*%
X314882322Y-164599479D02*
X314900000Y-164581801D01*
X314725000Y-163525001D02*
X314725000Y-162925000D01*
%TO.N,/USB_D+*%
X315350000Y-164768199D02*
X315350000Y-163700001D01*
X315350000Y-163700001D02*
X315525000Y-163525001D01*
X315200521Y-164917678D02*
X315350000Y-164768199D01*
X315525000Y-163525001D02*
X315525000Y-162925000D01*
%TO.N,/USB_D-*%
X314599479Y-164599479D02*
X314882322Y-164599479D01*
X314900000Y-164581801D02*
X314900000Y-163700001D01*
X314900000Y-163700001D02*
X314725000Y-163525001D01*
%TO.N,/USB_D+*%
X327520000Y-163360000D02*
X327495001Y-163335001D01*
X327495001Y-163335001D02*
X326403834Y-163335001D01*
X326403834Y-163335001D02*
X326203835Y-163535000D01*
%TO.N,/USB_D-*%
X326403834Y-162884999D02*
X326203835Y-162685000D01*
X327520000Y-162860000D02*
X327495001Y-162884999D01*
X327495001Y-162884999D02*
X326403834Y-162884999D01*
D35*
%TO.N,+5V*%
X327520000Y-165510000D02*
X324810000Y-165510000D01*
X324810000Y-165510000D02*
X324700000Y-165400000D01*
X327520000Y-160710000D02*
X324790000Y-160710000D01*
X324790000Y-160710000D02*
X324700000Y-160800000D01*
D32*
%TO.N,+BATT*%
X244670700Y-148730000D02*
X245755200Y-148730000D01*
X248026200Y-151001000D02*
X260062500Y-151001000D01*
X245755200Y-148730000D02*
X248026200Y-151001000D01*
%TO.N,+5V*%
X324700000Y-165400000D02*
X324700000Y-160800000D01*
X262337500Y-150950000D02*
X276787500Y-165400000D01*
X276787500Y-165400000D02*
X276800000Y-165400000D01*
%TO.N,GND*%
X31500000Y-156200000D02*
X22750000Y-156200000D01*
X262401000Y-156199000D02*
X256700000Y-156199000D01*
X22750000Y-156200000D02*
X21550000Y-157400000D01*
X256700000Y-156199000D02*
X256699000Y-156200000D01*
X264144515Y-154455485D02*
X262401000Y-156199000D01*
X277091550Y-167402520D02*
X264144515Y-154455485D01*
X305300000Y-157300000D02*
X305300000Y-164600000D01*
D33*
%TO.N,/BOOT*%
X286749997Y-147300000D02*
X251200000Y-147300000D01*
%TD*%
M02*
